<svg xmlns="http://www.w3.org/2000/svg" viewBox="0 0 600 450" width="600" height="450">
  <defs>
    <linearGradient id="bg" x1="0" y1="0" x2="0" y2="1">
      <stop offset="0" stop-color="#ebe4d2"/>
      <stop offset="1" stop-color="#d6cdb7"/>
    </linearGradient>
  </defs>
  <rect width="600" height="450" fill="url(#bg)"/>
  <g opacity="0.28" fill="none" stroke="#6b4f3a" stroke-width="3" stroke-linejoin="round">
    <g transform="translate(180 165)">
      <line x1="0" y1="0" x2="0" y2="100"/>
      <line x1="40" y1="0" x2="40" y2="100"/>
      <line x1="0" y1="20" x2="40" y2="20"/>
      <line x1="0" y1="35" x2="40" y2="35"/>
      <line x1="0" y1="50" x2="40" y2="50"/>
      <line x1="-3" y1="65" x2="43" y2="65"/>
      <line x1="-3" y1="65" x2="-3" y2="115"/>
      <line x1="43" y1="65" x2="43" y2="115"/>
    </g>
    <g transform="translate(280 165)">
      <line x1="0" y1="0" x2="0" y2="100"/>
      <line x1="40" y1="0" x2="40" y2="100"/>
      <line x1="0" y1="20" x2="40" y2="20"/>
      <line x1="0" y1="35" x2="40" y2="35"/>
      <line x1="0" y1="50" x2="40" y2="50"/>
      <line x1="-3" y1="65" x2="43" y2="65"/>
      <line x1="-3" y1="65" x2="-3" y2="115"/>
      <line x1="43" y1="65" x2="43" y2="115"/>
    </g>
    <g transform="translate(380 165)">
      <line x1="0" y1="0" x2="0" y2="100"/>
      <line x1="40" y1="0" x2="40" y2="100"/>
      <line x1="0" y1="20" x2="40" y2="20"/>
      <line x1="0" y1="35" x2="40" y2="35"/>
      <line x1="0" y1="50" x2="40" y2="50"/>
      <line x1="-3" y1="65" x2="43" y2="65"/>
      <line x1="-3" y1="65" x2="-3" y2="115"/>
      <line x1="43" y1="65" x2="43" y2="115"/>
    </g>
  </g>
  <text x="300" y="360" text-anchor="middle" font-family="Georgia,serif" font-size="22" fill="#4a3526">Set of 4 Ladder-Back Chairs</text>
  <text x="300" y="388" text-anchor="middle" font-family="-apple-system,Segoe UI,sans-serif" font-size="13" fill="#6b6358" letter-spacing="0.05em">PHOTO COMING SOON</text>
</svg>
