<svg xmlns="http://www.w3.org/2000/svg" xmlns:xlink="http://www.w3.org/1999/xlink" xmlns:inkscape="http://www.inkscape.org/namespaces/inkscape" version="1.1" width="1000" height="336" viewBox="40 220 1000 336">
<g>
<path d="M1018.5 539.25C1018.5 547.75 1018.625 552.125 1018.875 552.375 1019.125 552.625 1020 552.75 1021.5 552.75 1023 552.75 1023.875 552.875 1024.125 553.125 1024.375 553.375 1026.5 553.375 1030.5 553.125 1034.5 552.875 1036.625 552.625 1036.875 552.375 1037.125 552.125 1037.25 551.375 1037.25 550.125 1037.25 548.875 1037.125 548.125 1036.875 547.875 1036.625 547.625 1035.25 547.5 1032.75 547.5 1030.25 547.5 1028.375 547.25 1027.125 546.75 1025.875 546.25 1025.25 545.5 1025.25 544.5 1025.25 543.5 1025.375 542.875 1025.625 542.625 1025.875 542.375 1027.375 542.25 1030.125 542.25 1032.875 542.25 1034.5 542 1035 541.5 1035.5 541 1035.75 540.125 1035.75 538.875 1035.75 537.625 1035.5 536.875 1035 536.625 1034.5 536.375 1032.875 536.25 1030.125 536.25 1027.375 536.25 1025.875 536.125 1025.625 535.875 1025.375 535.625 1025.25 534.875 1025.25 533.625 1025.25 532.375 1025.375 531.625 1025.625 531.375 1025.875 531.125 1027.625 531 1030.875 531 1034.125 531 1036 530.75 1036.5 530.25 1037 529.75 1037.25 529 1037.25 528 1037.25 527 1036.875 526.25 1036.125 525.75 1035.375 525.25 1032.625 525 1027.875 525 1023.125 525 1020.375 525.25 1019.625 525.75 1018.875 526.25 1018.5 530.75 1018.5 539.25ZM987.375 526.5C987.125 527 987 531.25 987 539.25 987 547.25 987.125 551.5 987.375 552 987.625 552.5 988.25 552.875 989.25 553.125 990.25 553.375 991.25 553.25 992.25 552.75 993.25 552.25 993.75 550.875 993.75 548.625 993.75 546.375 993.875 545.125 994.125 544.875 994.375 544.625 995 544.5 996 544.5 997 544.5 998 545.125 999 546.375 1000 547.625 1000.625 548.625 1000.875 549.375 1001.125 550.125 1001.625 550.875 1002.375 551.625 1003.125 552.375 1004.25 552.75 1005.75 552.75 1007.25 552.75 1008.125 552.625 1008.375 552.375 1008.625 552.125 1008.75 551.625 1008.75 550.875 1008.75 550.125 1008.25 549 1007.25 547.5 1006.25 546 1005.75 544.875 1005.75 544.125 1005.75 543.375 1006.25 542.25 1007.25 540.75 1008.25 539.25 1008.75 537.375 1008.75 535.125 1008.75 532.875 1008.625 531.625 1008.375 531.375 1008.125 531.125 1008 530.75 1008 530.25 1008 529.75 1007.5 529 1006.5 528 1005.5 527 1004.375 526.375 1003.125 526.125 1001.875 525.875 1001.125 525.625 1000.875 525.375 1000.625 525.125 998.625 525 994.875 525 991.125 525 989 525.125 988.5 525.375 988 525.625 987.625 526 987.375 526.5ZM994.5 531.75C995 531.25 996 531 997.5 531 999 531 1000.125 531.375 1000.875 532.125 1001.625 532.875 1002 533.75 1002 534.75 1002 535.75 1001.5 536.625 1000.5 537.375 999.5 538.125 998.375 538.5 997.125 538.5 995.875 538.5 995 538.25 994.5 537.75 994 537.25 993.75 536.25 993.75 534.75 993.75 533.25 994 532.25 994.5 531.75ZM959.625 525.75C958.375 526.25 957.125 527.125 955.875 528.375 954.625 529.625 953.625 531 952.875 532.5 952.125 534 951.75 536 951.75 538.5 951.75 541 952.125 543.25 952.875 545.25 953.625 547.25 954.5 548.75 955.5 549.75 956.5 550.75 957.875 551.625 959.625 552.375 961.375 553.125 963.25 553.5 965.25 553.5 967.25 553.5 969.25 553 971.25 552 973.25 551 974.75 549.875 975.75 548.625 976.75 547.375 977.25 546.5 977.25 546 977.25 545.5 977.375 545.125 977.625 544.875 977.875 544.625 978 543.875 978 542.625 978 541.375 978.125 540.625 978.375 540.375 978.625 540.125 978.625 539 978.375 537 978.125 535 977.5 533.125 976.5 531.375 975.5 529.625 974.5 528.375 973.5 527.625 972.5 526.875 971.375 526.25 970.125 525.75 968.875 525.25 967.125 525 964.875 525 962.625 525 960.875 525.25 959.625 525.75ZM965.25 531C966.25 531 967 531.125 967.5 531.375 968 531.625 968.75 532.25 969.75 533.25 970.75 534.25 971.25 535.125 971.25 535.875 971.25 536.625 971.375 537.125 971.625 537.375 971.875 537.625 971.875 538.625 971.625 540.375 971.375 542.125 970.875 543.5 970.125 544.5 969.375 545.5 968.5 546.25 967.5 546.75 966.5 547.25 965.375 547.375 964.125 547.125 962.875 546.875 961.625 546 960.375 544.5 959.125 543 958.5 541.375 958.5 539.625 958.5 537.875 958.625 536.875 958.875 536.625 959.125 536.375 959.25 536 959.25 535.5 959.25 535 959.5 534.375 960 533.625 960.5 532.875 961.25 532.25 962.25 531.75 963.25 531.25 964.25 531 965.25 531ZM925.5 525.375C925 525.625 924.625 526 924.375 526.5 924.125 527 924.125 527.75 924.375 528.75 924.625 529.75 924.875 530.375 925.125 530.625 925.375 530.875 926.25 531 927.75 531 929.25 531 930.25 531.25 930.75 531.75 931.25 532.25 931.5 535.75 931.5 542.25 931.5 548.75 932 552.25 933 552.75 934 553.25 935 553.375 936 553.125 937 552.875 937.625 552.5 937.875 552 938.125 551.5 938.25 548 938.25 541.5 938.25 535 938.375 531.625 938.625 531.375 938.875 531.125 940 531 942 531 944 531 945.125 530.875 945.375 530.625 945.625 530.375 945.75 529.625 945.75 528.375 945.75 527.125 945.375 526.25 944.625 525.75 943.875 525.25 940.625 525 934.875 525 929.125 525 926 525.125 925.5 525.375ZM902.25 525.75C901.25 526.25 900.375 526.875 899.625 527.625 898.875 528.375 898.375 529 898.125 529.5 897.875 530 897.75 531.375 897.75 533.625 897.75 535.875 898 537.375 898.5 538.125 899 538.875 900 539.625 901.5 540.375 903 541.125 904.125 541.5 904.875 541.5 905.625 541.5 906.5 541.75 907.5 542.25 908.5 542.75 909.25 543.25 909.75 543.75 910.25 544.25 910.5 544.75 910.5 545.25 910.5 545.75 910.25 546.25 909.75 546.75 909.25 547.25 908.375 547.5 907.125 547.5 905.875 547.5 904.75 547.125 903.75 546.375 902.75 545.625 901.75 545.25 900.75 545.25 899.75 545.25 898.875 545.625 898.125 546.375 897.375 547.125 897 547.75 897 548.25 897 548.75 897.75 549.625 899.25 550.875 900.75 552.125 901.75 552.75 902.25 552.75 902.75 552.75 903.125 552.875 903.375 553.125 903.625 553.375 904.875 553.5 907.125 553.5 909.375 553.5 911.125 553.25 912.375 552.75 913.625 552.25 914.625 551.625 915.375 550.875 916.125 550.125 916.625 549.5 916.875 549 917.125 548.5 917.25 547.125 917.25 544.875 917.25 542.625 916.875 541 916.125 540 915.375 539 913.375 537.875 910.125 536.625 906.875 535.375 905.125 534.625 904.875 534.375 904.625 534.125 904.5 533.75 904.5 533.25 904.5 532.75 904.75 532.25 905.25 531.75 905.75 531.25 906.5 531 907.5 531 908.5 531 909.75 531.375 911.25 532.125 912.75 532.875 913.875 532.875 914.625 532.125 915.375 531.375 915.875 530.625 916.125 529.875 916.375 529.125 916.125 528.375 915.375 527.625 914.625 526.875 913.625 526.25 912.375 525.75 911.125 525.25 909.375 525 907.125 525 904.875 525 903.25 525.25 902.25 525.75ZM853.5 525.375C853 525.625 852.625 526.375 852.375 527.625 852.125 528.875 852.25 529.75 852.75 530.25 853.25 530.75 854.25 531 855.75 531 857.25 531 858.25 531.25 858.75 531.75 859.25 532.25 859.5 535.75 859.5 542.25 859.5 548.75 859.625 552.125 859.875 552.375 860.125 552.625 861.125 552.75 862.875 552.75 864.625 552.75 865.625 552.5 865.875 552 866.125 551.5 866.25 548 866.25 541.5 866.25 535 866.375 531.625 866.625 531.375 866.875 531.125 867.875 531 869.625 531 871.375 531 872.5 530.75 873 530.25 873.5 529.75 873.75 529 873.75 528 873.75 527 873.375 526.25 872.625 525.75 871.875 525.25 868.625 525 862.875 525 857.125 525 854 525.125 853.5 525.375ZM820.125 526.5C819.875 527 819.75 531.25 819.75 539.25 819.75 547.25 819.875 551.5 820.125 552 820.375 552.5 821.25 552.75 822.75 552.75 824.25 552.75 825.125 552.625 825.375 552.375 825.625 552.125 825.75 551.75 825.75 551.25 825.75 550.75 825.875 550.375 826.125 550.125 826.375 549.875 826.5 548.25 826.5 545.25 826.5 542.25 826.625 540.625 826.875 540.375 827.125 540.125 827.5 540.125 828 540.375 828.5 540.625 829.75 542.25 831.75 545.25 833.75 548.25 835.25 550.25 836.25 551.25 837.25 552.25 838.5 552.75 840 552.75 841.5 552.75 842.375 552.625 842.625 552.375 842.875 552.125 843 547.75 843 539.25 843 530.75 842.75 526.25 842.25 525.75 841.75 525.25 841 525 840 525 839 525 838.25 525.125 837.75 525.375 837.25 525.625 837 526 837 526.5 837 527 836.875 527.375 836.625 527.625 836.375 527.875 836.25 528.375 836.25 529.125 836.25 529.875 836.375 530.375 836.625 530.625 836.875 530.875 837 532.25 837 534.75 837 537.25 836.75 538.625 836.25 538.875 835.75 539.125 834.75 538.125 833.25 535.875 831.75 533.625 830 531.375 828 529.125 826 526.875 824.75 525.625 824.25 525.375 823.75 525.125 823 525.125 822 525.375 821 525.625 820.375 526 820.125 526.5ZM791.25 539.25C791.25 547.75 791.75 552.25 792.75 552.75 793.75 553.25 796.25 553.5 800.25 553.5 804.25 553.5 806.375 553.375 806.625 553.125 806.875 552.875 807.375 552.75 808.125 552.75 808.875 552.75 809.5 552.5 810 552 810.5 551.5 810.625 550.625 810.375 549.375 810.125 548.125 809.75 547.375 809.25 547.125 808.75 546.875 807.5 546.75 805.5 546.75 803.5 546.75 802.375 546.875 802.125 547.125 801.875 547.375 801.375 547.5 800.625 547.5 799.875 547.5 799.25 547.25 798.75 546.75 798.25 546.25 798 545.5 798 544.5 798 543.5 798.125 542.875 798.375 542.625 798.625 542.375 800.25 542.25 803.25 542.25 806.25 542.25 807.875 542.125 808.125 541.875 808.375 541.625 808.5 540.75 808.5 539.25 808.5 537.75 808.375 536.875 808.125 536.625 807.875 536.375 806.25 536.25 803.25 536.25 800.25 536.25 798.625 536.125 798.375 535.875 798.125 535.625 798 534.875 798 533.625 798 532.375 798.125 531.625 798.375 531.375 798.625 531.125 800.375 531 803.625 531 806.875 531 808.75 530.75 809.25 530.25 809.75 529.75 810 529 810 528 810 527 809.625 526.25 808.875 525.75 808.125 525.25 805.375 525 800.625 525 795.875 525 793.125 525.25 792.375 525.75 791.625 526.25 791.25 530.75 791.25 539.25ZM754.125 526.125C753.875 526.375 753.75 530.75 753.75 539.25 753.75 547.75 753.875 552.125 754.125 552.375 754.375 552.625 755.25 552.75 756.75 552.75 758.25 552.75 759.125 552.625 759.375 552.375 759.625 552.125 759.75 551.5 759.75 550.5 759.75 549.5 759.875 548.875 760.125 548.625 760.375 548.375 760.5 547.5 760.5 546 760.5 544.5 760.375 543.5 760.125 543 759.875 542.5 759.875 542.125 760.125 541.875 760.375 541.625 761 541.875 762 542.625 763 543.375 763.625 544.125 763.875 544.875 764.125 545.625 764.625 546.375 765.375 547.125 766.125 547.875 766.75 548.25 767.25 548.25 767.75 548.25 768.5 547.625 769.5 546.375 770.5 545.125 771.125 544.125 771.375 543.375 771.625 542.625 772.125 542 772.875 541.5 773.625 541 774.125 540.875 774.375 541.125 774.625 541.375 774.75 543.25 774.75 546.75 774.75 550.25 774.875 552.125 775.125 552.375 775.375 552.625 776.25 552.75 777.75 552.75 779.25 552.75 780.125 552.625 780.375 552.375 780.625 552.125 780.75 547.75 780.75 539.25 780.75 530.75 780.375 526.25 779.625 525.75 778.875 525.25 777.875 525.125 776.625 525.375 775.375 525.625 774.5 526 774 526.5 773.5 527 773 527.875 772.5 529.125 772 530.375 771.125 531.875 769.875 533.625 768.625 535.375 767.75 536.25 767.25 536.25 766.75 536.25 765.375 534.5 763.125 531 760.875 527.5 759.5 525.625 759 525.375 758.5 525.125 757.625 525.125 756.375 525.375 755.125 525.625 754.375 525.875 754.125 526.125ZM720.75 525.75C720.25 526.25 720 526.75 720 527.25 720 527.75 719.875 528.125 719.625 528.375 719.375 528.625 719.25 530.375 719.25 533.625 719.25 536.875 719.375 538.625 719.625 538.875 719.875 539.125 719.875 541.125 719.625 544.875 719.375 548.625 719.5 550.875 720 551.625 720.5 552.375 721.5 552.75 723 552.75 724.5 552.75 725.375 552.625 725.625 552.375 725.875 552.125 726 550 726 546 726 542 726.25 539.875 726.75 539.625 727.25 539.375 728.25 540.375 729.75 542.625 731.25 544.875 733 547.125 735 549.375 737 551.625 738.75 552.75 740.25 552.75 741.75 552.75 742.625 552.5 742.875 552 743.125 551.5 743.25 547.125 743.25 538.875 743.25 530.625 743 526.25 742.5 525.75 742 525.25 741.25 525 740.25 525 739.25 525 738.5 525.125 738 525.375 737.5 525.625 737.125 526 736.875 526.5 736.625 527 736.5 529 736.5 532.5 736.5 536 736.25 537.875 735.75 538.125 735.25 538.375 734.125 537.375 732.375 535.125 730.625 532.875 729.5 531.25 729 530.25 728.5 529.25 727.75 528.25 726.75 527.25 725.75 526.25 724.625 525.625 723.375 525.375 722.125 525.125 721.25 525.25 720.75 525.75ZM693 525.75C692 526.25 690.875 527.125 689.625 528.375 688.375 529.625 687.375 531 686.625 532.5 685.875 534 685.5 536.125 685.5 538.875 685.5 541.625 685.875 543.875 686.625 545.625 687.375 547.375 688.375 548.875 689.625 550.125 690.875 551.375 692.125 552.25 693.375 552.75 694.625 553.25 696.5 553.5 699 553.5 701.5 553.5 703.5 553.125 705 552.375 706.5 551.625 707.75 550.75 708.75 549.75 709.75 548.75 710.25 546.625 710.25 543.375 710.25 540.125 709.75 538.25 708.75 537.75 707.75 537.25 706.125 537 703.875 537 701.625 537 700.125 537.25 699.375 537.75 698.625 538.25 698.25 539 698.25 540 698.25 541 698.375 541.75 698.625 542.25 698.875 542.75 699.625 543 700.875 543 702.125 543 702.875 543.125 703.125 543.375 703.375 543.625 703.5 544 703.5 544.5 703.5 545 703.25 545.5 702.75 546 702.25 546.5 701.375 546.875 700.125 547.125 698.875 547.375 698.125 547.375 697.875 547.125 697.625 546.875 697.25 546.75 696.75 546.75 696.25 546.75 695.5 546.25 694.5 545.25 693.5 544.25 692.875 543.5 692.625 543 692.375 542.5 692.25 541.375 692.25 539.625 692.25 537.875 692.375 536.875 692.625 536.625 692.875 536.375 693 536 693 535.5 693 535 693.5 534.25 694.5 533.25 695.5 532.25 696.25 531.625 696.75 531.375 697.25 531.125 698 531 699 531 700 531 701.125 531.375 702.375 532.125 703.625 532.875 704.625 533.25 705.375 533.25 706.125 533.25 706.75 533.125 707.25 532.875 707.75 532.625 708.125 531.875 708.375 530.625 708.625 529.375 708.375 528.375 707.625 527.625 706.875 526.875 705.875 526.25 704.625 525.75 703.375 525.25 701.375 525 698.625 525 695.875 525 694 525.25 693 525.75ZM670.5 525.75C670 526.25 669.75 530.75 669.75 539.25 669.75 547.75 670.125 552.25 670.875 552.75 671.625 553.25 672.25 553.5 672.75 553.5 673.25 553.5 674 553.125 675 552.375 676 551.625 676.5 547.25 676.5 539.25 676.5 531.25 676.375 527 676.125 526.5 675.875 526 675.5 525.625 675 525.375 674.5 525.125 673.75 525 672.75 525 671.75 525 671 525.25 670.5 525.75ZM645 525.75C644 526.25 643.125 526.875 642.375 527.625 641.625 528.375 641 529.375 640.5 530.625 640 531.875 639.75 533 639.75 534 639.75 535 640.25 536.25 641.25 537.75 642.25 539.25 644.25 540.5 647.25 541.5 650.25 542.5 652 543.25 652.5 543.75 653 544.25 653.25 544.75 653.25 545.25 653.25 545.75 653 546.25 652.5 546.75 652 547.25 651.125 547.5 649.875 547.5 648.625 547.5 647.375 547 646.125 546 644.875 545 644 544.5 643.5 544.5 643 544.5 642.375 544.75 641.625 545.25 640.875 545.75 640.375 546.625 640.125 547.875 639.875 549.125 640 550 640.5 550.5 641 551 642.125 551.625 643.875 552.375 645.625 553.125 647.625 553.5 649.875 553.5 652.125 553.5 653.875 553.25 655.125 552.75 656.375 552.25 657.375 551.625 658.125 550.875 658.875 550.125 659.375 549.5 659.625 549 659.875 548.5 660 547.125 660 544.875 660 542.625 659.875 541.25 659.625 540.75 659.375 540.25 658.625 539.5 657.375 538.5 656.125 537.5 654.25 536.625 651.75 535.875 649.25 535.125 647.875 534.625 647.625 534.375 647.375 534.125 647.25 533.625 647.25 532.875 647.25 532.125 647.375 531.625 647.625 531.375 647.875 531.125 648.625 531 649.875 531 651.125 531 652.5 531.375 654 532.125 655.5 532.875 656.75 532.75 657.75 531.75 658.75 530.75 659.25 530 659.25 529.5 659.25 529 658.875 528.375 658.125 527.625 657.375 526.875 656.5 526.25 655.5 525.75 654.5 525.25 652.75 525 650.25 525 647.75 525 646 525.25 645 525.75ZM607.125 526.125C606.875 526.375 606.75 530.75 606.75 539.25 606.75 547.75 607.25 552.25 608.25 552.75 609.25 553.25 609.875 553.375 610.125 553.125 610.375 552.875 610.75 552.75 611.25 552.75 611.75 552.75 612.25 552.5 612.75 552 613.25 551.5 613.5 549.5 613.5 546 613.5 542.5 613.75 540.625 614.25 540.375 614.75 540.125 615.75 541.125 617.25 543.375 618.75 545.625 620.375 547.75 622.125 549.75 623.875 551.75 625.5 552.75 627 552.75 628.5 552.75 629.375 552.625 629.625 552.375 629.875 552.125 630 550.625 630 547.875 630 545.125 630.125 543.625 630.375 543.375 630.625 543.125 630.75 542.75 630.75 542.25 630.75 541.75 630.625 541.375 630.375 541.125 630.125 540.875 630 539 630 535.5 630 532 630.125 530.125 630.375 529.875 630.625 529.625 630.625 528.875 630.375 527.625 630.125 526.375 629.75 525.625 629.25 525.375 628.75 525.125 628 525 627 525 626 525 625.25 525.125 624.75 525.375 624.25 525.625 624 526 624 526.5 624 527 623.875 527.375 623.625 527.625 623.375 527.875 623.375 529.625 623.625 532.875 623.875 536.125 623.875 537.875 623.625 538.125 623.375 538.375 622.75 538.125 621.75 537.375 620.75 536.625 620 535.75 619.5 534.75 619 533.75 618.25 532.75 617.25 531.75 616.25 530.75 615.25 529.5 614.25 528 613.25 526.5 612.5 525.625 612 525.375 611.5 525.125 610.625 525.125 609.375 525.375 608.125 525.625 607.375 525.875 607.125 526.125ZM578.25 526.125C576.75 526.875 575.375 528 574.125 529.5 572.875 531 572.25 532 572.25 532.5 572.25 533 572 533.75 571.5 534.75 571 535.75 570.75 537.125 570.75 538.875 570.75 540.625 570.875 541.625 571.125 541.875 571.375 542.125 571.5 542.625 571.5 543.375 571.5 544.125 571.875 545.25 572.625 546.75 573.375 548.25 574.375 549.5 575.625 550.5 576.875 551.5 578.125 552.25 579.375 552.75 580.625 553.25 582.375 553.5 584.625 553.5 586.875 553.5 588.75 553.125 590.25 552.375 591.75 551.625 593.125 550.625 594.375 549.375 595.625 548.125 596.625 546.5 597.375 544.5 598.125 542.5 598.375 540.375 598.125 538.125 597.875 535.875 597.5 534.125 597 532.875 596.5 531.625 595.5 530.25 594 528.75 592.5 527.25 591.25 526.25 590.25 525.75 589.25 525.25 587.375 525 584.625 525 581.875 525 579.75 525.375 578.25 526.125ZM584.625 531C585.875 531 587 531.375 588 532.125 589 532.875 589.75 533.75 590.25 534.75 590.75 535.75 591 537.25 591 539.25 591 541.25 590.875 542.5 590.625 543 590.375 543.5 589.5 544.375 588 545.625 586.5 546.875 585.375 547.5 584.625 547.5 583.875 547.5 583 547.25 582 546.75 581 546.25 580.25 545.75 579.75 545.25 579.25 544.75 578.75 543.875 578.25 542.625 577.75 541.375 577.5 540.25 577.5 539.25 577.5 538.25 577.75 537.125 578.25 535.875 578.75 534.625 579.625 533.5 580.875 532.5 582.125 531.5 583.375 531 584.625 531ZM546.75 526.125C545.25 526.875 544 527.75 543 528.75 542 529.75 541.25 530.75 540.75 531.75 540.25 532.75 540 533.5 540 534 540 534.5 539.875 534.875 539.625 535.125 539.375 535.375 539.25 536.625 539.25 538.875 539.25 541.125 539.375 542.375 539.625 542.625 539.875 542.875 540 543.375 540 544.125 540 544.875 540.25 545.75 540.75 546.75 541.25 547.75 542 548.75 543 549.75 544 550.75 545.25 551.625 546.75 552.375 548.25 553.125 550.25 553.5 552.75 553.5 555.25 553.5 556.875 553.25 557.625 552.75 558.375 552.25 559 552 559.5 552 560 552 560.875 551.375 562.125 550.125 563.375 548.875 564 548 564 547.5 564 547 563.375 546.25 562.125 545.25 560.875 544.25 559.875 543.875 559.125 544.125 558.375 544.375 557.375 545 556.125 546 554.875 547 553.5 547.375 552 547.125 550.5 546.875 549.375 546.375 548.625 545.625 547.875 544.875 547.25 544 546.75 543 546.25 542 546 540.75 546 539.25 546 537.75 546.125 536.875 546.375 536.625 546.625 536.375 546.75 536 546.75 535.5 546.75 535 547.5 534.125 549 532.875 550.5 531.625 551.875 531 553.125 531 554.375 531 555.625 531.5 556.875 532.5 558.125 533.5 559.125 534 559.875 534 560.625 534 561.375 533.75 562.125 533.25 562.875 532.75 563.375 532.125 563.625 531.375 563.875 530.625 563.125 529.5 561.375 528 559.625 526.5 558.5 525.75 558 525.75 557.5 525.75 557.125 525.625 556.875 525.375 556.625 525.125 555.25 525 552.75 525 550.25 525 548.25 525.375 546.75 526.125ZM900.75 483C900.25 483.5 900 487.75 900 495.75 900 503.75 900.25 508 900.75 508.5 901.25 509 902 509.25 903 509.25 904 509.25 904.625 509.375 904.875 509.625 905.125 509.875 907.125 510 910.875 510 914.625 510 916.875 509.75 917.625 509.25 918.375 508.75 918.75 507.875 918.75 506.625 918.75 505.375 918.625 504.625 918.375 504.375 918.125 504.125 916.25 503.875 912.75 503.625 909.25 503.375 907.375 503.125 907.125 502.875 906.875 502.625 906.75 502 906.75 501 906.75 500 906.875 499.375 907.125 499.125 907.375 498.875 909 498.75 912 498.75 915 498.75 916.625 498.625 916.875 498.375 917.125 498.125 917.25 497.375 917.25 496.125 917.25 494.875 917 494 916.5 493.5 916 493 914.375 492.75 911.625 492.75 908.875 492.75 907.375 492.625 907.125 492.375 906.875 492.125 906.75 491.5 906.75 490.5 906.75 489.5 906.875 488.875 907.125 488.625 907.375 488.375 909 488.25 912 488.25 915 488.25 916.75 488.125 917.25 487.875 917.75 487.625 918.125 486.875 918.375 485.625 918.625 484.375 918.5 483.5 918 483 917.5 482.5 914.625 482.25 909.375 482.25 904.125 482.25 901.25 482.5 900.75 483ZM869.25 483.75C868.75 484.75 868.5 485.75 868.5 486.75 868.5 487.75 868.625 488.375 868.875 488.625 869.125 488.875 869.25 490 869.25 492 869.25 494 869.125 495.125 868.875 495.375 868.625 495.625 868.625 497 868.875 499.5 869.125 502 869.125 503.375 868.875 503.625 868.625 503.875 868.5 504.5 868.5 505.5 868.5 506.5 868.875 507.5 869.625 508.5 870.375 509.5 871.375 509.875 872.625 509.625 873.875 509.375 874.625 509.125 874.875 508.875 875.125 508.625 875.25 507.5 875.25 505.5 875.25 503.5 875.5 502.25 876 501.75 876.5 501.25 877.125 501 877.875 501 878.625 501 879.25 501.25 879.75 501.75 880.25 502.25 880.875 503.25 881.625 504.75 882.375 506.25 883.125 507.375 883.875 508.125 884.625 508.875 885.875 509.25 887.625 509.25 889.375 509.25 890.25 508.75 890.25 507.75 890.25 506.75 889.75 505.5 888.75 504 887.75 502.5 887.25 501.375 887.25 500.625 887.25 499.875 887.75 498.75 888.75 497.25 889.75 495.75 890.25 493.875 890.25 491.625 890.25 489.375 890 487.75 889.5 486.75 889 485.75 888 484.75 886.5 483.75 885 482.75 881.875 482.25 877.125 482.25 872.375 482.25 869.75 482.75 869.25 483.75ZM876 489C876.5 488.5 877.625 488.25 879.375 488.25 881.125 488.25 882.25 488.5 882.75 489 883.25 489.5 883.5 490.25 883.5 491.25 883.5 492.25 883.125 493.125 882.375 493.875 881.625 494.625 880.5 495 879 495 877.5 495 876.5 494.75 876 494.25 875.5 493.75 875.25 492.875 875.25 491.625 875.25 490.375 875.5 489.5 876 489ZM835.5 483.375C835 484.125 834.75 487.125 834.75 492.375 834.75 497.625 835.125 501.25 835.875 503.25 836.625 505.25 837.625 506.75 838.875 507.75 840.125 508.75 841 509.25 841.5 509.25 842 509.25 842.375 509.375 842.625 509.625 842.875 509.875 844.125 510 846.375 510 848.625 510 850.375 509.75 851.625 509.25 852.875 508.75 854.125 507.875 855.375 506.625 856.625 505.375 857.25 504.5 857.25 504 857.25 503.5 857.375 503.125 857.625 502.875 857.875 502.625 858 499.25 858 492.75 858 486.25 857.875 482.875 857.625 482.625 857.375 482.375 856.625 482.25 855.375 482.25 854.125 482.25 853.25 482.5 852.75 483 852.25 483.5 852 486 852 490.5 852 495 851.875 497.375 851.625 497.625 851.375 497.875 851.25 498.5 851.25 499.5 851.25 500.5 850.75 501.5 849.75 502.5 848.75 503.5 847.875 504 847.125 504 846.375 504 845.875 503.875 845.625 503.625 845.375 503.375 845 503.25 844.5 503.25 844 503.25 843.375 502.75 842.625 501.75 841.875 500.75 841.5 497.5 841.5 492 841.5 486.5 841.25 483.5 840.75 483 840.25 482.5 839.375 482.25 838.125 482.25 836.875 482.25 836 482.625 835.5 483.375ZM805.5 483C805 483.5 804.75 484.25 804.75 485.25 804.75 486.25 805 487 805.5 487.5 806 488 807.125 488.25 808.875 488.25 810.625 488.25 811.625 488.375 811.875 488.625 812.125 488.875 812.25 492.125 812.25 498.375 812.25 504.625 812.375 508 812.625 508.5 812.875 509 813.875 509.25 815.625 509.25 817.375 509.25 818.375 509 818.625 508.5 818.875 508 819 504.625 819 498.375 819 492.125 819.125 488.875 819.375 488.625 819.625 488.375 820.5 488.25 822 488.25 823.5 488.25 824.625 488 825.375 487.5 826.125 487 826.5 486.25 826.5 485.25 826.5 484.25 826.25 483.5 825.75 483 825.25 482.5 821.875 482.25 815.625 482.25 809.375 482.25 806 482.5 805.5 483ZM789 483.375C788.5 484.125 788.25 488.25 788.25 495.75 788.25 503.25 788.5 507.375 789 508.125 789.5 508.875 790.5 509.25 792 509.25 793.5 509.25 794.375 509.125 794.625 508.875 794.875 508.625 795 504.25 795 495.75 795 487.25 794.875 482.875 794.625 482.625 794.375 482.375 793.5 482.25 792 482.25 790.5 482.25 789.5 482.625 789 483.375ZM754.125 482.625C753.875 482.875 753.75 487.25 753.75 495.75 753.75 504.25 753.875 508.625 754.125 508.875 754.375 509.125 755.25 509.25 756.75 509.25 758.25 509.25 759.25 509 759.75 508.5 760.25 508 760.5 506 760.5 502.5 760.5 499 760.75 497.125 761.25 496.875 761.75 496.625 762.75 497.625 764.25 499.875 765.75 502.125 767.375 504.25 769.125 506.25 770.875 508.25 772 509.375 772.5 509.625 773 509.875 773.75 509.875 774.75 509.625 775.75 509.375 776.5 508.875 777 508.125 777.5 507.375 777.75 505 777.75 501 777.75 497 777.625 494.875 777.375 494.625 777.125 494.375 777.125 492.875 777.375 490.125 777.625 487.375 777.625 485.875 777.375 485.625 777.125 485.375 777 484.875 777 484.125 777 483.375 776.875 482.875 776.625 482.625 776.375 482.375 775.625 482.25 774.375 482.25 773.125 482.25 772.25 482.5 771.75 483 771.25 483.5 771 485.625 771 489.375 771 493.125 770.75 495.125 770.25 495.375 769.75 495.625 767.875 493.5 764.625 489 761.375 484.5 758.875 482.25 757.125 482.25 755.375 482.25 754.375 482.375 754.125 482.625ZM722.25 483.375C721.75 484.125 721.5 485 721.5 486 721.5 487 721.625 487.625 721.875 487.875 722.125 488.125 722.25 490.875 722.25 496.125 722.25 501.375 722.125 504.125 721.875 504.375 721.625 504.625 721.5 505.125 721.5 505.875 721.5 506.625 721.625 507.125 721.875 507.375 722.125 507.625 722.25 508 722.25 508.5 722.25 509 722.5 509.375 723 509.625 723.5 509.875 724.25 510 725.25 510 726.25 510 727 509.75 727.5 509.25 728 508.75 728.25 507.5 728.25 505.5 728.25 503.5 728.5 502.25 729 501.75 729.5 501.25 730.125 501 730.875 501 731.625 501 732.5 501.625 733.5 502.875 734.5 504.125 735.125 505.125 735.375 505.875 735.625 506.625 736.125 507.375 736.875 508.125 737.625 508.875 738.875 509.25 740.625 509.25 742.375 509.25 743.25 508.75 743.25 507.75 743.25 506.75 742.75 505.375 741.75 503.625 740.75 501.875 740.25 500.75 740.25 500.25 740.25 499.75 740.75 498.75 741.75 497.25 742.75 495.75 743.25 493.75 743.25 491.25 743.25 488.75 743.125 487.25 742.875 486.75 742.625 486.25 742 485.5 741 484.5 740 483.5 739.25 483 738.75 483 738.25 483 737.875 482.875 737.625 482.625 737.375 482.375 734.875 482.25 730.125 482.25 725.375 482.25 722.75 482.625 722.25 483.375ZM728.625 488.625C728.875 488.375 730 488.25 732 488.25 734 488.25 735.375 488.625 736.125 489.375 736.875 490.125 737.25 490.875 737.25 491.625 737.25 492.375 736.75 493.125 735.75 493.875 734.75 494.625 733.5 495 732 495 730.5 495 729.5 494.75 729 494.25 728.5 493.75 728.25 492.75 728.25 491.25 728.25 489.75 728.375 488.875 728.625 488.625ZM688.125 482.625C687.875 482.875 687.75 486.125 687.75 492.375 687.75 498.625 688 502.375 688.5 503.625 689 504.875 689.625 505.875 690.375 506.625 691.125 507.375 692.25 508.125 693.75 508.875 695.25 509.625 697.125 510 699.375 510 701.625 510 703.5 509.625 705 508.875 706.5 508.125 707.75 507.125 708.75 505.875 709.75 504.625 710.25 503.75 710.25 503.25 710.25 502.75 710.375 502.375 710.625 502.125 710.875 501.875 711 498.75 711 492.75 711 486.75 710.75 483.5 710.25 483 709.75 482.5 708.875 482.25 707.625 482.25 706.375 482.25 705.5 482.625 705 483.375 704.5 484.125 704.25 487.125 704.25 492.375 704.25 497.625 703.875 500.75 703.125 501.75 702.375 502.75 701.5 503.375 700.5 503.625 699.5 503.875 698.875 503.875 698.625 503.625 698.375 503.375 698 503.25 697.5 503.25 697 503.25 696.375 502.75 695.625 501.75 694.875 500.75 694.5 497.625 694.5 492.375 694.5 487.125 694.25 484.125 693.75 483.375 693.25 482.625 692.25 482.25 690.75 482.25 689.25 482.25 688.375 482.375 688.125 482.625ZM668.25 482.25C662.75 482.25 659.875 482.375 659.625 482.625 659.375 482.875 659.25 484.875 659.25 488.625 659.25 492.375 659.125 494.375 658.875 494.625 658.625 494.875 658.5 495.5 658.5 496.5 658.5 497.5 658.625 498.125 658.875 498.375 659.125 498.625 659.25 500.375 659.25 503.625 659.25 506.875 659.375 508.625 659.625 508.875 659.875 509.125 660.75 509.25 662.25 509.25 663.75 509.25 664.625 509.125 664.875 508.875 665.125 508.625 665.25 507.375 665.25 505.125 665.25 502.875 665.5 501.375 666 500.625 666.5 499.875 668 499.5 670.5 499.5 673 499.5 674.625 499.25 675.375 498.75 676.125 498.25 676.5 497.5 676.5 496.5 676.5 495.5 676.375 494.75 676.125 494.25 675.875 493.75 675.5 493.375 675 493.125 674.5 492.875 672.875 492.75 670.125 492.75 667.375 492.75 665.875 492.625 665.625 492.375 665.375 492.125 665.25 491.5 665.25 490.5 665.25 489.5 665.375 488.875 665.625 488.625 665.875 488.375 667.625 488.25 670.875 488.25 674.125 488.25 676 488.125 676.5 487.875 677 487.625 677.375 487 677.625 486 677.875 485 677.75 484.125 677.25 483.375 676.75 482.625 673.75 482.25 668.25 482.25ZM893.25 376.875C893.25 377.625 893.125 378.125 892.875 378.375 892.625 378.625 892.5 380 892.5 382.5 892.5 385 892.75 386.5 893.25 387 893.75 387.5 894.5 387.625 895.5 387.375 896.5 387.125 897.5 386.375 898.5 385.125 899.5 383.875 900.75 382.875 902.25 382.125 903.75 381.375 905.625 381 907.875 381 910.125 381 911.5 381.25 912 381.75 912.5 382.25 912.75 382.75 912.75 383.25 912.75 383.75 912.875 384.125 913.125 384.375 913.375 384.625 913.5 390.875 913.5 403.125 913.5 415.375 913.375 421.625 913.125 421.875 912.875 422.125 912.75 422.875 912.75 424.125 912.75 425.375 912.125 426.625 910.875 427.875 909.625 429.125 909 430.25 909 431.25 909 432.25 909.625 433 910.875 433.5 912.125 434 915.5 434.125 921 433.875 926.5 433.625 929.5 433.25 930 432.75 930.5 432.25 930.75 431.625 930.75 430.875 930.75 430.125 930.125 429.125 928.875 427.875 927.625 426.625 927 425.75 927 425.25 927 424.75 926.875 424.375 926.625 424.125 926.375 423.875 926.25 417 926.25 403.5 926.25 390 926.625 382.875 927.375 382.125 928.125 381.375 929.375 381 931.125 381 932.875 381 934.375 381.25 935.625 381.75 936.875 382.25 938.375 383.375 940.125 385.125 941.875 386.875 943 387.75 943.5 387.75 944 387.75 944.5 387.5 945 387 945.5 386.5 945.75 385.25 945.75 383.25 945.75 381.25 945.625 380.125 945.375 379.875 945.125 379.625 945 379 945 378 945 377 944.875 376.25 944.625 375.75 944.375 375.25 943.875 374.75 943.125 374.25 942.375 373.75 934.375 373.5 919.125 373.5 903.875 373.5 895.75 373.875 894.75 374.625 893.75 375.375 893.25 376.125 893.25 376.875ZM758.625 373.5C757.875 374 757.5 374.75 757.5 375.75 757.5 376.75 758.125 377.875 759.375 379.125 760.625 380.375 761.25 382.875 761.25 386.625 761.25 390.375 761.375 392.375 761.625 392.625 761.875 392.875 762 397.75 762 407.25 762 416.75 761.875 421.625 761.625 421.875 761.375 422.125 761.25 422.75 761.25 423.75 761.25 424.75 761.125 425.5 760.875 426 760.625 426.5 760.125 427 759.375 427.5 758.625 428 758.125 428.75 757.875 429.75 757.625 430.75 757.75 431.5 758.25 432 758.75 432.5 759.375 432.75 760.125 432.75 760.875 432.75 761.375 432.875 761.625 433.125 761.875 433.375 764.75 433.375 770.25 433.125 775.75 432.875 778.625 432.625 778.875 432.375 779.125 432.125 779.25 431.5 779.25 430.5 779.25 429.5 778.625 428.375 777.375 427.125 776.125 425.875 775.5 424.875 775.5 424.125 775.5 423.375 775.375 422.875 775.125 422.625 774.875 422.375 774.75 420.75 774.75 417.75 774.75 414.75 774.875 413 775.125 412.5 775.375 412 775.875 411.5 776.625 411 777.375 410.5 779.625 410.25 783.375 410.25 787.125 410.25 789.125 410.125 789.375 409.875 789.625 409.625 790.625 409.375 792.375 409.125 794.125 408.875 796 408.125 798 406.875 800 405.625 801 404.875 801 404.625 801 404.375 801.5 403.75 802.5 402.75 803.5 401.75 804.375 400.375 805.125 398.625 805.875 396.875 806.25 394.375 806.25 391.125 806.25 387.875 805.75 385.25 804.75 383.25 803.75 381.25 802.75 379.75 801.75 378.75 800.75 377.75 798.75 376.625 795.75 375.375 792.75 374.125 790.625 373.5 789.375 373.5 788.125 373.5 787.375 373.375 787.125 373.125 786.875 372.875 782.25 372.75 773.25 372.75 764.25 372.75 759.375 373 758.625 373.5ZM780.375 378.75C782.625 378.75 784.375 379 785.625 379.5 786.875 380 788.125 380.875 789.375 382.125 790.625 383.375 791.5 384.625 792 385.875 792.5 387.125 792.75 389 792.75 391.5 792.75 394 792.5 395.875 792 397.125 791.5 398.375 790.625 399.625 789.375 400.875 788.125 402.125 786.875 403 785.625 403.5 784.375 404 782.5 404.25 780 404.25 777.5 404.25 776 404 775.5 403.5 775 403 774.75 400.875 774.75 397.125 774.75 393.375 774.625 391.375 774.375 391.125 774.125 390.875 774 389.75 774 387.75 774 385.75 774.125 384.625 774.375 384.375 774.625 384.125 774.75 383.5 774.75 382.5 774.75 381.5 775.125 380.625 775.875 379.875 776.625 379.125 778.125 378.75 780.375 378.75ZM692.625 375C692.375 376 692.375 376.75 692.625 377.25 692.875 377.75 693.375 378.25 694.125 378.75 694.875 379.25 695.375 379.75 695.625 380.25 695.875 380.75 696 381.5 696 382.5 696 383.5 696.125 384.125 696.375 384.375 696.625 384.625 696.75 385.125 696.75 385.875 696.75 386.625 696.625 387.125 696.375 387.375 696.125 387.625 696 388.125 696 388.875 696 389.625 696.125 390.125 696.375 390.375 696.625 390.625 696.75 394.625 696.75 402.375 696.75 410.125 696.625 414.125 696.375 414.375 696.125 414.625 696 415 696 415.5 696 416 696.125 416.375 696.375 416.625 696.625 416.875 696.75 418 696.75 420 696.75 422 696.5 423.625 696 424.875 695.5 426.125 694.75 427.25 693.75 428.25 692.75 429.25 692.25 430 692.25 430.5 692.25 431 692.5 431.5 693 432 693.5 432.5 694.125 432.75 694.875 432.75 695.625 432.75 696.125 432.875 696.375 433.125 696.625 433.375 697 433.5 697.5 433.5 698 433.5 698.375 433.375 698.625 433.125 698.875 432.875 705 432.875 717 433.125 729 433.375 735.5 433.125 736.5 432.375 737.5 431.625 738.375 430.25 739.125 428.25 739.875 426.25 740.25 424.5 740.25 423 740.25 421.5 740 420.5 739.5 420 739 419.5 738.25 419.375 737.25 419.625 736.25 419.875 734.875 420.75 733.125 422.25 731.375 423.75 729.125 425 726.375 426 723.625 427 721.375 427.5 719.625 427.5 717.875 427.5 716.875 427.375 716.625 427.125 716.375 426.875 715.875 426.75 715.125 426.75 714.375 426.75 713.625 426.5 712.875 426 712.125 425.5 711.5 424.75 711 423.75 710.5 422.75 710.25 419.875 710.25 415.125 710.25 410.375 710.625 407.625 711.375 406.875 712.125 406.125 713.875 405.75 716.625 405.75 719.375 405.75 721.5 406.125 723 406.875 724.5 407.625 725.625 408 726.375 408 727.125 408 727.875 407.5 728.625 406.5 729.375 405.5 729.75 404.25 729.75 402.75 729.75 401.25 729.625 400.375 729.375 400.125 729.125 399.875 729 399.5 729 399 729 398.5 728.75 398 728.25 397.5 727.75 397 727 396.75 726 396.75 725 396.75 724 397 723 397.5 722 398 720 398.25 717 398.25 714 398.25 712.125 397.875 711.375 397.125 710.625 396.375 710.25 393.75 710.25 389.25 710.25 384.75 710.5 382.125 711 381.375 711.5 380.625 714.125 380.25 718.875 380.25 723.625 380.25 726.125 380.375 726.375 380.625 726.625 380.875 727 381 727.5 381 728 381 729 381.625 730.5 382.875 732 384.125 733.25 384.75 734.25 384.75 735.25 384.75 736 384.375 736.5 383.625 737 382.875 737 381.25 736.5 378.75 736 376.25 735.25 374.625 734.25 373.875 733.25 373.125 726.375 372.75 713.625 372.75 700.875 372.75 694.25 372.875 693.75 373.125 693.25 373.375 692.875 374 692.625 375ZM618 373.5C617.5 374 617.25 374.625 617.25 375.375 617.25 376.125 617.875 377.125 619.125 378.375 620.375 379.625 621 380.75 621 381.75 621 382.75 621.125 383.375 621.375 383.625 621.625 383.875 621.75 390.625 621.75 403.875 621.75 417.125 621.625 423.875 621.375 424.125 621.125 424.375 621 424.75 621 425.25 621 425.75 620.5 426.5 619.5 427.5 618.5 428.5 618 429.5 618 430.5 618 431.5 618.125 432.125 618.375 432.375 618.625 432.625 621.375 432.75 626.625 432.75 631.875 432.75 634.625 432.875 634.875 433.125 635.125 433.375 636.125 433.5 637.875 433.5 639.625 433.5 640.625 433.375 640.875 433.125 641.125 432.875 643.25 432.75 647.25 432.75 651.25 432.75 653.375 432.625 653.625 432.375 653.875 432.125 654.625 431.875 655.875 431.625 657.125 431.375 658.875 430.625 661.125 429.375 663.375 428.125 665.375 426.625 667.125 424.875 668.875 423.125 670.25 421.5 671.25 420 672.25 418.5 673.125 416.75 673.875 414.75 674.625 412.75 675 411.375 675 410.625 675 409.875 675.125 409.375 675.375 409.125 675.625 408.875 675.75 406.625 675.75 402.375 675.75 398.125 675.625 395.875 675.375 395.625 675.125 395.375 674.875 394.5 674.625 393 674.375 391.5 673.625 389.625 672.375 387.375 671.125 385.125 669.25 382.875 666.75 380.625 664.25 378.375 661.5 376.625 658.5 375.375 655.5 374.125 653.375 373.5 652.125 373.5 650.875 373.5 650.125 373.375 649.875 373.125 649.625 372.875 644.375 372.75 634.125 372.75 623.875 372.75 618.5 373 618 373.5ZM642 378.75C645.5 378.75 647.875 379 649.125 379.5 650.375 380 652.125 381.25 654.375 383.25 656.625 385.25 658.125 386.875 658.875 388.125 659.625 389.375 660.125 390.75 660.375 392.25 660.625 393.75 660.875 394.625 661.125 394.875 661.375 395.125 661.5 397.75 661.5 402.75 661.5 407.75 661.375 410.375 661.125 410.625 660.875 410.875 660.625 411.75 660.375 413.25 660.125 414.75 659.625 416.25 658.875 417.75 658.125 419.25 657 420.75 655.5 422.25 654 423.75 652.125 425 649.875 426 647.625 427 645.125 427.5 642.375 427.5 639.625 427.5 637.75 427 636.75 426 635.75 425 635.25 423.875 635.25 422.625 635.25 421.375 635.125 420.625 634.875 420.375 634.625 420.125 634.5 414 634.5 402 634.5 390 634.625 383.875 634.875 383.625 635.125 383.375 635.25 382.75 635.25 381.75 635.25 380.75 635.5 380 636 379.5 636.5 379 638.5 378.75 642 378.75ZM837.75 374.625C834.75 375.875 832.25 377.25 830.25 378.75 828.25 380.25 826.75 381.625 825.75 382.875 824.75 384.125 823.75 385.75 822.75 387.75 821.75 389.75 821.25 391 821.25 391.5 821.25 392 821 392.75 820.5 393.75 820 394.75 819.75 395.75 819.75 396.75 819.75 397.75 819.625 398.375 819.375 398.625 819.125 398.875 819 400.5 819 403.5 819 406.5 819.125 408.125 819.375 408.375 819.625 408.625 819.75 409.25 819.75 410.25 819.75 411.25 819.875 411.875 820.125 412.125 820.375 412.375 820.625 413.125 820.875 414.375 821.125 415.625 821.875 417.375 823.125 419.625 824.375 421.875 825.75 423.75 827.25 425.25 828.75 426.75 831 428.375 834 430.125 837 431.875 839.25 432.875 840.75 433.125 842.25 433.375 843.125 433.625 843.375 433.875 843.625 434.125 844.5 434.25 846 434.25 847.5 434.25 848.375 434.375 848.625 434.625 848.875 434.875 849.875 435 851.625 435 853.375 435 854.375 434.875 854.625 434.625 854.875 434.375 855.625 434.25 856.875 434.25 858.125 434.25 859.25 434 860.25 433.5 861.25 433 862.125 432.75 862.875 432.75 863.625 432.75 864.875 432.25 866.625 431.25 868.375 430.25 870.125 429 871.875 427.5 873.625 426 875.5 423.625 877.5 420.375 879.5 417.125 880.625 414.625 880.875 412.875 881.125 411.125 881.375 410.125 881.625 409.875 881.875 409.625 882 407.625 882 403.875 882 400.125 881.875 398.125 881.625 397.875 881.375 397.625 881.125 396.5 880.875 394.5 880.625 392.5 880.125 390.75 879.375 389.25 878.625 387.75 877.375 386 875.625 384 873.875 382 873 380.875 873 380.625 873 380.375 871.5 379.25 868.5 377.25 865.5 375.25 863.25 374.125 861.75 373.875 860.25 373.625 859.375 373.375 859.125 373.125 858.875 372.875 858.25 372.75 857.25 372.75 856.25 372.75 855.625 372.625 855.375 372.375 855.125 372.125 852.875 372.125 848.625 372.375 844.375 372.625 840.75 373.375 837.75 374.625ZM850.5 378.75C852.5 378.75 854.25 379.125 855.75 379.875 857.25 380.625 859 382 861 384 863 386 864.5 388 865.5 390 866.5 392 867.125 393.875 867.375 395.625 867.625 397.375 867.875 398.375 868.125 398.625 868.375 398.875 868.5 401 868.5 405 868.5 409 868.375 411.125 868.125 411.375 867.875 411.625 867.75 412.125 867.75 412.875 867.75 413.625 867.375 414.75 866.625 416.25 865.875 417.75 865.5 418.75 865.5 419.25 865.5 419.75 864.625 421 862.875 423 861.125 425 859.875 426.25 859.125 426.75 858.375 427.25 857.25 427.625 855.75 427.875 854.25 428.125 853.375 428.375 853.125 428.625 852.875 428.875 851.75 428.875 849.75 428.625 847.75 428.375 845.875 427.75 844.125 426.75 842.375 425.75 841 424.75 840 423.75 839 422.75 837.875 421.125 836.625 418.875 835.375 416.625 834.75 415.25 834.75 414.75 834.75 414.25 834.5 413.5 834 412.5 833.5 411.5 833.25 410.5 833.25 409.5 833.25 408.5 833.125 407.875 832.875 407.625 832.625 407.375 832.5 405.75 832.5 402.75 832.5 399.75 832.625 398.125 832.875 397.875 833.125 397.625 833.25 396.875 833.25 395.625 833.25 394.375 833.75 392.5 834.75 390 835.75 387.5 836.75 385.625 837.75 384.375 838.75 383.125 840.125 382 841.875 381 843.625 380 844.875 379.5 845.625 379.5 846.375 379.5 846.875 379.375 847.125 379.125 847.375 378.875 848.5 378.75 850.5 378.75ZM335.25 354.75C334.75 355.25 334.5 358.25 334.5 363.75 334.5 369.25 334.625 372.25 334.875 372.75 335.125 373.25 335.5 373.625 336 373.875 336.5 374.125 339.5 374.25 345 374.25 350.5 374.25 353.5 374 354 373.5 354.5 373 354.75 371.875 354.75 370.125 354.75 368.375 354.875 367.375 355.125 367.125 355.375 366.875 355.5 365.25 355.5 362.25 355.5 359.25 355.375 357.625 355.125 357.375 354.875 357.125 354.75 356.75 354.75 356.25 354.75 355.75 354.25 355.125 353.25 354.375 352.25 353.625 349.5 353.25 345 353.25 340.5 353.25 338.125 353.375 337.875 353.625 337.625 353.875 337.25 354 336.75 354 336.25 354 335.75 354.25 335.25 354.75ZM309 355.125C308.5 355.875 308.25 358.875 308.25 364.125 308.25 369.375 308.625 372.375 309.375 373.125 310.125 373.875 313.125 374.25 318.375 374.25 323.625 374.25 326.5 374.125 327 373.875 327.5 373.625 327.875 373.25 328.125 372.75 328.375 372.25 328.5 369.25 328.5 363.75 328.5 358.25 328 355.125 327 354.375 326 353.625 323.375 353.25 319.125 353.25 314.875 353.25 312.625 353.375 312.375 353.625 312.125 353.875 311.625 354 310.875 354 310.125 354 309.5 354.375 309 355.125ZM335.625 328.125C334.875 328.875 334.5 332 334.5 337.5 334.5 343 334.75 346 335.25 346.5 335.75 347 336.25 347.25 336.75 347.25 337.25 347.25 337.625 347.375 337.875 347.625 338.125 347.875 340 348 343.5 348 347 348 348.875 347.875 349.125 347.625 349.375 347.375 350.125 347.25 351.375 347.25 352.625 347.25 353.5 347 354 346.5 354.5 346 354.75 345.5 354.75 345 354.75 344.5 354.875 344.125 355.125 343.875 355.375 343.625 355.5 341.375 355.5 337.125 355.5 332.875 355.375 330.625 355.125 330.375 354.875 330.125 354.75 329.75 354.75 329.25 354.75 328.75 354.375 328.25 353.625 327.75 352.875 327.25 349.875 327 344.625 327 339.375 327 336.375 327.375 335.625 328.125ZM308.625 328.5C308.375 329 308.25 332 308.25 337.5 308.25 343 308.75 346.125 309.75 346.875 310.75 347.625 312.625 348 315.375 348 318.125 348 319.625 347.875 319.875 347.625 320.125 347.375 321.25 347.25 323.25 347.25 325.25 347.25 326.5 347.125 327 346.875 327.5 346.625 327.875 346.25 328.125 345.75 328.375 345.25 328.5 342.375 328.5 337.125 328.5 331.875 328.125 328.875 327.375 328.125 326.625 327.375 323.625 327 318.375 327 313.125 327 310.25 327.125 309.75 327.375 309.25 327.625 308.875 328 308.625 328.5ZM622.5 298.125C621.5 298.875 620.625 299.375 619.875 299.625 619.125 299.875 617.625 301.125 615.375 303.375 613.125 305.625 611.375 308 610.125 310.5 608.875 313 608.25 314.75 608.25 315.75 608.25 316.75 608.125 317.375 607.875 317.625 607.625 317.875 607.5 320.125 607.5 324.375 607.5 328.625 608.125 332.375 609.375 335.625 610.625 338.875 612.5 341.875 615 344.625 617.5 347.375 620.125 349.5 622.875 351 625.625 352.5 627.375 353.25 628.125 353.25 628.875 353.25 629.375 353.375 629.625 353.625 629.875 353.875 630.5 354 631.5 354 632.5 354 633.125 354.125 633.375 354.375 633.625 354.625 635.125 354.75 637.875 354.75 640.625 354.75 642.125 354.625 642.375 354.375 642.625 354.125 643.625 354 645.375 354 647.125 354 649.125 353.5 651.375 352.5 653.625 351.5 655.25 350.625 656.25 349.875 657.25 349.125 657.75 348.625 657.75 348.375 657.75 348.125 658.375 347.375 659.625 346.125 660.875 344.875 661.5 343.625 661.5 342.375 661.5 341.125 661.375 340.375 661.125 340.125 660.875 339.875 660.375 339.625 659.625 339.375 658.875 339.125 657.75 339.625 656.25 340.875 654.75 342.125 652.75 343.25 650.25 344.25 647.75 345.25 645 345.75 642 345.75 639 345.75 637.375 345.625 637.125 345.375 636.875 345.125 636.5 345 636 345 635.5 345 634.625 344.625 633.375 343.875 632.125 343.125 630.875 342 629.625 340.5 628.375 339 627.375 337.375 626.625 335.625 625.875 333.875 625.5 332 625.5 330 625.5 328 626 326.625 627 325.875 628 325.125 632.125 324.75 639.375 324.75 646.625 324.75 650.375 324.875 650.625 325.125 650.875 325.375 651.25 325.375 651.75 325.125 652.25 324.875 653.875 324.75 656.625 324.75 659.375 324.75 661.25 324.125 662.25 322.875 663.25 321.625 663.75 320.25 663.75 318.75 663.75 317.25 663.625 316.375 663.375 316.125 663.125 315.875 663 315.25 663 314.25 663 313.25 662.875 312.625 662.625 312.375 662.375 312.125 662.125 311.375 661.875 310.125 661.625 308.875 660.25 306.875 657.75 304.125 655.25 301.375 652.875 299.375 650.625 298.125 648.375 296.875 646.25 296.125 644.25 295.875 642.25 295.625 641.125 295.375 640.875 295.125 640.625 294.875 639 294.75 636 294.75 633 294.75 631.375 294.875 631.125 295.125 630.875 295.375 630.375 295.5 629.625 295.5 628.875 295.5 628.375 295.625 628.125 295.875 627.875 296.125 627.125 296.375 625.875 296.625 624.625 296.875 623.5 297.375 622.5 298.125ZM626.25 310.125C626.75 308.875 627.875 307.375 629.625 305.625 631.375 303.875 633.25 302.75 635.25 302.25 637.25 301.75 638.375 301.625 638.625 301.875 638.875 302.125 639.625 302.375 640.875 302.625 642.125 302.875 643.625 303.875 645.375 305.625 647.125 307.375 648.25 308.875 648.75 310.125 649.25 311.375 649.5 312.75 649.5 314.25 649.5 315.75 649 316.875 648 317.625 647 318.375 643.375 318.75 637.125 318.75 630.875 318.75 627.375 318.375 626.625 317.625 625.875 316.875 625.5 315.75 625.5 314.25 625.5 312.75 625.75 311.375 626.25 310.125ZM968.625 280.125C968.375 281.375 969 282.625 970.5 283.875 972 285.125 973 286.25 973.5 287.25 974 288.25 974.25 298 974.25 316.5 974.25 335 974 344.75 973.5 345.75 973 346.75 972.125 347.75 970.875 348.75 969.625 349.75 968.875 350.5 968.625 351 968.375 351.5 968.375 352.25 968.625 353.25 968.875 354.25 969.5 355 970.5 355.5 971.5 356 972.625 356.25 973.875 356.25 975.125 356.25 975.875 356.125 976.125 355.875 976.375 355.625 978.375 355.5 982.125 355.5 985.875 355.5 987.875 355.625 988.125 355.875 988.375 356.125 989.625 356.25 991.875 356.25 994.125 356.25 995.375 356.125 995.625 355.875 995.875 355.625 1000.375 355.625 1009.125 355.875 1017.875 356.125 1022.5 356.125 1023 355.875 1023.5 355.625 1024.25 355 1025.25 354 1026.25 353 1027.25 351.125 1028.25 348.375 1029.25 345.625 1029.75 343.375 1029.75 341.625 1029.75 339.875 1029.375 338.75 1028.625 338.25 1027.875 337.75 1026.75 337.875 1025.25 338.625 1023.75 339.375 1022.125 340.625 1020.375 342.375 1018.625 344.125 1016.5 345.5 1014 346.5 1011.5 347.5 1007.875 348 1003.125 348 998.375 348 995.25 347.375 993.75 346.125 992.25 344.875 991.375 343.875 991.125 343.125 990.875 342.375 990.75 339 990.75 333 990.75 327 991.125 323.5 991.875 322.5 992.625 321.5 993.25 320.875 993.75 320.625 994.25 320.375 996.625 320.25 1000.875 320.25 1005.125 320.25 1007.875 320.5 1009.125 321 1010.375 321.5 1011.5 321.75 1012.5 321.75 1013.5 321.75 1014.375 321.375 1015.125 320.625 1015.875 319.875 1016.25 318.375 1016.25 316.125 1016.25 313.875 1015.875 312.25 1015.125 311.25 1014.375 310.25 1013.25 309.75 1011.75 309.75 1010.25 309.75 1008.875 310 1007.625 310.5 1006.375 311 1003.75 311.25 999.75 311.25 995.75 311.25 993.25 310.75 992.25 309.75 991.25 308.75 990.75 305.125 990.75 298.875 990.75 292.625 991.25 288.875 992.25 287.625 993.25 286.375 996.5 285.75 1002 285.75 1007.5 285.75 1011.125 286.125 1012.875 286.875 1014.625 287.625 1016.25 288.75 1017.75 290.25 1019.25 291.75 1020.625 292.625 1021.875 292.875 1023.125 293.125 1024 293 1024.5 292.5 1025 292 1025.25 290.875 1025.25 289.125 1025.25 287.375 1024.875 285.375 1024.125 283.125 1023.375 280.875 1022.75 279.5 1022.25 279 1021.75 278.5 1021.125 278.125 1020.375 277.875 1019.625 277.625 1011.125 277.5 994.875 277.5 978.625 277.5 970.25 277.625 969.75 277.875 969.25 278.125 968.875 278.875 968.625 280.125ZM859.5 280.5C859.5 281.5 860.125 282.875 861.375 284.625 862.625 286.375 863.25 295.875 863.25 313.125 863.25 330.375 862.875 340.25 862.125 342.75 861.375 345.25 860.375 347.125 859.125 348.375 857.875 349.625 857.25 350.625 857.25 351.375 857.25 352.125 857.5 352.75 858 353.25 858.5 353.75 861.25 354.125 866.25 354.375 871.25 354.625 874.375 354.25 875.625 353.25 876.875 352.25 877.375 351.25 877.125 350.25 876.875 349.25 876.25 348.25 875.25 347.25 874.25 346.25 873.5 345.125 873 343.875 872.5 342.625 872.25 335 872.25 321 872.25 307 872.375 299.875 872.625 299.625 872.875 299.375 873.5 299.625 874.5 300.375 875.5 301.125 879.625 309.125 886.875 324.375 894.125 339.625 898.375 347.875 899.625 349.125 900.875 350.375 902.25 350.75 903.75 350.25 905.25 349.75 907.75 346 911.25 339 914.75 332 918.375 324.25 922.125 315.75 925.875 307.25 928.125 302.75 928.875 302.25 929.625 301.75 930.375 308 931.125 321 931.875 334 932.125 341.375 931.875 343.125 931.625 344.875 930.875 346.5 929.625 348 928.375 349.5 927.75 350.75 927.75 351.75 927.75 352.75 928 353.5 928.5 354 929 354.5 931.75 354.875 936.75 355.125 941.75 355.375 945.5 355.375 948 355.125 950.5 354.875 952 354.5 952.5 354 953 353.5 953.25 352.75 953.25 351.75 953.25 350.75 952.5 349.5 951 348 949.5 346.5 948.5 343.125 948 337.875 947.5 332.625 947.125 323.375 946.875 310.125 946.625 296.875 946.75 289.5 947.25 288 947.75 286.5 948.625 285 949.875 283.5 951.125 282 951.5 280.625 951 279.375 950.5 278.125 947.25 277.5 941.25 277.5 935.25 277.5 931.375 278.25 929.625 279.75 927.875 281.25 923.5 289.375 916.5 304.125 909.5 318.875 905.5 325.875 904.5 325.125 903.5 324.375 899.5 316.625 892.5 301.875 885.5 287.125 881.25 279.25 879.75 278.25 878.25 277.25 875 276.75 870 276.75 865 276.75 862 277.125 861 277.875 860 278.625 859.5 279.5 859.5 280.5ZM675.75 278.25C675.75 279.25 676.5 280.5 678 282 679.5 283.5 680.375 285.875 680.625 289.125 680.875 292.375 681.125 294.125 681.375 294.375 681.625 294.625 681.75 302.5 681.75 318 681.75 333.5 681.5 342 681 343.5 680.5 345 679.625 346.25 678.375 347.25 677.125 348.25 676.5 349.375 676.5 350.625 676.5 351.875 676.875 352.75 677.625 353.25 678.375 353.75 682.5 354 690 354 697.5 354 701.625 353.75 702.375 353.25 703.125 352.75 703.5 351.875 703.5 350.625 703.5 349.375 702.875 348.25 701.625 347.25 700.375 346.25 699.5 345 699 343.5 698.5 342 698.25 339.125 698.25 334.875 698.25 330.625 698.125 328 697.875 327 697.625 326 697.625 325.375 697.875 325.125 698.125 324.875 698.25 323.875 698.25 322.125 698.25 320.375 698.75 319.125 699.75 318.375 700.75 317.625 706.25 317.25 716.25 317.25 726.25 317.25 731.875 317.75 733.125 318.75 734.375 319.75 735 323.75 735 330.75 735 337.75 734.75 342 734.25 343.5 733.75 345 732.875 346.375 731.625 347.625 730.375 348.875 729.75 350 729.75 351 729.75 352 730.125 352.75 730.875 353.25 731.625 353.75 735.75 354 743.25 354 750.75 354 754.875 353.75 755.625 353.25 756.375 352.75 756.75 351.875 756.75 350.625 756.75 349.375 756 348 754.5 346.5 753 345 752.125 342.875 751.875 340.125 751.625 337.375 751.375 335.875 751.125 335.625 750.875 335.375 750.75 334 750.75 331.5 750.75 329 750.875 327.625 751.125 327.375 751.375 327.125 751.5 326.375 751.5 325.125 751.5 323.875 751.375 323.125 751.125 322.875 750.875 322.625 750.875 316.375 751.125 304.125 751.375 291.875 752.25 284.875 753.75 283.125 755.25 281.375 756 279.875 756 278.625 756 277.375 755.625 276.5 754.875 276 754.125 275.5 750.25 275.25 743.25 275.25 736.25 275.25 732.25 275.5 731.25 276 730.25 276.5 729.75 277.375 729.75 278.625 729.75 279.875 730.25 281 731.25 282 732.25 283 733 284.125 733.5 285.375 734 286.625 734.25 288.25 734.25 290.25 734.25 292.25 734.375 293.375 734.625 293.625 734.875 293.875 734.875 296.125 734.625 300.375 734.375 304.625 733.75 307.125 732.75 307.875 731.75 308.625 727.75 309 720.75 309 713.75 309 710.125 309.125 709.875 309.375 709.625 309.625 708.125 309.625 705.375 309.375 702.625 309.125 700.625 308.375 699.375 307.125 698.125 305.875 697.625 301.875 697.875 295.125 698.125 288.375 699 284.125 700.5 282.375 702 280.625 702.75 279.25 702.75 278.25 702.75 277.25 702.5 276.5 702 276 701.5 275.5 697.25 275.25 689.25 275.25 681.25 275.25 677 275.5 676.5 276 676 276.5 675.75 277.25 675.75 278.25ZM795.375 275.625C795.125 275.875 794.375 276.125 793.125 276.375 791.875 276.625 790.875 277 790.125 277.5 789.375 278 788.75 278.25 788.25 278.25 787.75 278.25 787.25 278.5 786.75 279 786.25 279.5 785.375 280 784.125 280.5 782.875 281 781.75 281.625 780.75 282.375 779.75 283.125 778.375 284.375 776.625 286.125 774.875 287.875 773.25 289.875 771.75 292.125 770.25 294.375 769 296.75 768 299.25 767 301.75 766.5 303.375 766.5 304.125 766.5 304.875 766.375 305.375 766.125 305.625 765.875 305.875 765.75 309.125 765.75 315.375 765.75 321.625 765.875 324.875 766.125 325.125 766.375 325.375 766.5 325.875 766.5 326.625 766.5 327.375 767.125 329.25 768.375 332.25 769.625 335.25 771 337.75 772.5 339.75 774 341.75 775.25 343.25 776.25 344.25 777.25 345.25 779 346.625 781.5 348.375 784 350.125 785.75 351.25 786.75 351.75 787.75 352.25 788.5 352.5 789 352.5 789.5 352.5 790.125 352.75 790.875 353.25 791.625 353.75 793 354.125 795 354.375 797 354.625 798.125 354.875 798.375 355.125 798.625 355.375 799.375 355.5 800.625 355.5 801.875 355.5 802.625 355.625 802.875 355.875 803.125 356.125 805 356.25 808.5 356.25 812 356.25 813.875 356.125 814.125 355.875 814.375 355.625 815.125 355.5 816.375 355.5 817.625 355.5 818.375 355.375 818.625 355.125 818.875 354.875 820 354.5 822 354 824 353.5 826.125 352.625 828.375 351.375 830.625 350.125 833 348.375 835.5 346.125 838 343.875 839.875 341.875 841.125 340.125 842.375 338.375 843.5 336.5 844.5 334.5 845.5 332.5 846.125 330.75 846.375 329.25 846.625 327.75 846.875 326.875 847.125 326.625 847.375 326.375 847.5 325.625 847.5 324.375 847.5 323.125 847.625 322.375 847.875 322.125 848.125 321.875 848.25 319.875 848.25 316.125 848.25 312.375 848.125 310.375 847.875 310.125 847.625 309.875 847.375 308.5 847.125 306 846.875 303.5 846 300.625 844.5 297.375 843 294.125 841.25 291.375 839.25 289.125 837.25 286.875 836.25 285.625 836.25 285.375 836.25 285.125 835.25 284.25 833.25 282.75 831.25 281.25 829.25 280 827.25 279 825.25 278 824 277.5 823.5 277.5 823 277.5 822.25 277.25 821.25 276.75 820.25 276.25 819.375 276 818.625 276 817.875 276 817.375 275.875 817.125 275.625 816.875 275.375 816.25 275.25 815.25 275.25 814.25 275.25 813.625 275.125 813.375 274.875 813.125 274.625 810.75 274.5 806.25 274.5 801.75 274.5 799.375 274.625 799.125 274.875 798.875 275.125 798.25 275.25 797.25 275.25 796.25 275.25 795.625 275.375 795.375 275.625ZM805.875 282.75C809.125 282.75 810.875 282.875 811.125 283.125 811.375 283.375 812.125 283.625 813.375 283.875 814.625 284.125 815.625 284.5 816.375 285 817.125 285.5 818.375 286.625 820.125 288.375 821.875 290.125 823.375 291.875 824.625 293.625 825.875 295.375 827 297.5 828 300 829 302.5 829.5 304.125 829.5 304.875 829.5 305.625 829.625 306.125 829.875 306.375 830.125 306.625 830.25 307.5 830.25 309 830.25 310.5 830.375 311.375 830.625 311.625 830.875 311.875 831 314.125 831 318.375 831 322.625 830.875 324.875 830.625 325.125 830.375 325.375 830.25 326 830.25 327 830.25 328 830.125 328.625 829.875 328.875 829.625 329.125 829.375 330 829.125 331.5 828.875 333 828.25 334.625 827.25 336.375 826.25 338.125 824.75 340 822.75 342 820.75 344 818.625 345.5 816.375 346.5 814.125 347.5 811.375 348 808.125 348 804.875 348 802.125 347.5 799.875 346.5 797.625 345.5 795.375 344 793.125 342 790.875 340 789.25 338.25 788.25 336.75 787.25 335.25 786.75 334.25 786.75 333.75 786.75 333.25 786.375 332.25 785.625 330.75 784.875 329.25 784.375 327.625 784.125 325.875 783.875 324.125 783.625 323.125 783.375 322.875 783.125 322.625 783 319.625 783 313.875 783 308.125 783.125 305.125 783.375 304.875 783.625 304.625 783.75 304 783.75 303 783.75 302 783.875 301.375 784.125 301.125 784.375 300.875 784.625 300.125 784.875 298.875 785.125 297.625 785.875 296 787.125 294 788.375 292 789.875 290.125 791.625 288.375 793.375 286.625 794.625 285.5 795.375 285 796.125 284.5 796.75 284.25 797.25 284.25 797.75 284.25 798.5 284 799.5 283.5 800.5 283 802.625 282.75 805.875 282.75ZM530.25 274.875C529.75 275.625 529.5 276.25 529.5 276.75 529.5 277.25 529.625 277.75 529.875 278.25 530.125 278.75 530.875 279.5 532.125 280.5 533.375 281.5 534.25 282.5 534.75 283.5 535.25 284.5 535.5 290.5 535.5 301.5 535.5 312.5 535.625 318.125 535.875 318.375 536.125 318.625 536.25 322.125 536.25 328.875 536.25 335.625 536.125 339.125 535.875 339.375 535.625 339.625 535.5 340.25 535.5 341.25 535.5 342.25 535.375 343 535.125 343.5 534.875 344 534 345 532.5 346.5 531 348 530.25 349.25 530.25 350.25 530.25 351.25 530.625 352 531.375 352.5 532.125 353 536.375 353.25 544.125 353.25 551.875 353.25 556.125 353 556.875 352.5 557.625 352 558 351.125 558 349.875 558 348.625 557.25 347.375 555.75 346.125 554.25 344.875 553.5 344 553.5 343.5 553.5 343 553.375 342.625 553.125 342.375 552.875 342.125 552.75 338.75 552.75 332.25 552.75 325.75 553 322.25 553.5 321.75 554 321.25 554.5 321 555 321 555.5 321 555.875 320.875 556.125 320.625 556.375 320.375 557.375 320.375 559.125 320.625 560.875 320.875 562.375 321.5 563.625 322.5 564.875 323.5 566.75 326.5 569.25 331.5 571.75 336.5 573.75 340.125 575.25 342.375 576.75 344.625 578.375 346.625 580.125 348.375 581.875 350.125 583.625 351.375 585.375 352.125 587.125 352.875 589.5 353.25 592.5 353.25 595.5 353.25 597.625 353 598.875 352.5 600.125 352 601 351.5 601.5 351 602 350.5 602.25 349.875 602.25 349.125 602.25 348.375 602 347.75 601.5 347.25 601 346.75 600.375 346.375 599.625 346.125 598.875 345.875 597.5 344.75 595.5 342.75 593.5 340.75 592.125 339 591.375 337.5 590.625 336 588.5 332.625 585 327.375 581.5 322.125 579.75 319.375 579.75 319.125 579.75 318.875 581.5 317.125 585 313.875 588.5 310.625 590.75 307.875 591.75 305.625 592.75 303.375 593.25 301.5 593.25 300 593.25 298.5 593.375 297.625 593.625 297.375 593.875 297.125 594 296.75 594 296.25 594 295.75 593.875 295.375 593.625 295.125 593.375 294.875 593.25 294.125 593.25 292.875 593.25 291.625 592.75 289.75 591.75 287.25 590.75 284.75 589.375 282.625 587.625 280.875 585.875 279.125 584 277.75 582 276.75 580 275.75 578.75 275.25 578.25 275.25 577.75 275.25 577.375 275.125 577.125 274.875 576.875 274.625 576.125 274.5 574.875 274.5 573.625 274.5 572.875 274.375 572.625 274.125 572.375 273.875 565.375 273.75 551.625 273.75 537.875 273.75 530.75 274.125 530.25 274.875ZM560.25 280.5C562.75 280.5 565 280.875 567 281.625 569 282.375 570.75 283.5 572.25 285 573.75 286.5 574.5 287.5 574.5 288 574.5 288.5 574.75 289.25 575.25 290.25 575.75 291.25 576 293.375 576 296.625 576 299.875 575.75 301.875 575.25 302.625 574.75 303.375 574.5 304 574.5 304.5 574.5 305 573.75 306.125 572.25 307.875 570.75 309.625 569.125 310.875 567.375 311.625 565.625 312.375 563.125 312.75 559.875 312.75 556.625 312.75 554.625 312.375 553.875 311.625 553.125 310.875 552.75 306.875 552.75 299.625 552.75 292.375 552.625 288.625 552.375 288.375 552.125 288.125 552 287.625 552 286.875 552 286.125 552.125 285.625 552.375 285.375 552.625 285.125 552.75 284.625 552.75 283.875 552.75 283.125 553 282.5 553.5 282 554 281.5 554.5 281.25 555 281.25 555.5 281.25 555.875 281.125 556.125 280.875 556.375 280.625 557.75 280.5 560.25 280.5ZM807 226.5C806.5 227 806.25 227.5 806.25 228 806.25 228.5 806.75 229.375 807.75 230.625 808.75 231.875 809.25 236.25 809.25 243.75 809.25 251.25 808.75 255.75 807.75 257.25 806.75 258.75 806.5 259.75 807 260.25 807.5 260.75 811.75 261 819.75 261 827.75 261 832.25 260 833.25 258 834.25 256 834.75 254.625 834.75 253.875 834.75 253.125 834.625 252.625 834.375 252.375 834.125 252.125 833.625 252 832.875 252 832.125 252 831.375 252.375 830.625 253.125 829.875 253.875 828.5 254.625 826.5 255.375 824.5 256.125 822.75 256.375 821.25 256.125 819.75 255.875 818.75 255.375 818.25 254.625 817.75 253.875 817.5 252.5 817.5 250.5 817.5 248.5 817.875 247.125 818.625 246.375 819.375 245.625 821.125 245.375 823.875 245.625 826.625 245.875 828.125 245.75 828.375 245.25 828.625 244.75 828.75 244 828.75 243 828.75 242 828.5 241.125 828 240.375 827.5 239.625 826.875 239.25 826.125 239.25 825.375 239.25 824.875 239.375 824.625 239.625 824.375 239.875 823.375 240 821.625 240 819.875 240 818.75 239.75 818.25 239.25 817.75 238.75 817.5 237.625 817.5 235.875 817.5 234.125 817.75 232.875 818.25 232.125 818.75 231.375 820.125 231 822.375 231 824.625 231 826.75 231.5 828.75 232.5 830.75 233.5 831.875 233.875 832.125 233.625 832.375 233.375 832.5 232.375 832.5 230.625 832.5 228.875 832.125 227.625 831.375 226.875 830.625 226.125 826.5 225.75 819 225.75 811.5 225.75 807.5 226 807 226.5ZM756.75 228C756.75 229 757.125 230 757.875 231 758.625 232 759 236.25 759 243.75 759 251.25 758.625 255.5 757.875 256.5 757.125 257.5 756.75 258.375 756.75 259.125 756.75 259.875 756.875 260.375 757.125 260.625 757.375 260.875 759.375 261 763.125 261 766.875 261 769 260.75 769.5 260.25 770 259.75 770.125 259.125 769.875 258.375 769.625 257.625 769.125 256.75 768.375 255.75 767.625 254.75 767.25 253.375 767.25 251.625 767.25 249.875 767.5 248.375 768 247.125 768.5 245.875 770.75 245.25 774.75 245.25 778.75 245.25 781 245.5 781.5 246 782 246.5 782.25 248.125 782.25 250.875 782.25 253.625 781.875 255.5 781.125 256.5 780.375 257.5 780 258.375 780 259.125 780 259.875 780.125 260.375 780.375 260.625 780.625 260.875 782.5 261 786 261 789.5 261 791.5 260.875 792 260.625 792.5 260.375 792.75 259.875 792.75 259.125 792.75 258.375 792.375 257.625 791.625 256.875 790.875 256.125 790.5 251.75 790.5 243.75 790.5 235.75 790.875 231.25 791.625 230.25 792.375 229.25 792.75 228.5 792.75 228 792.75 227.5 792.375 227 791.625 226.5 790.875 226 789 225.75 786 225.75 783 225.75 781.125 226 780.375 226.5 779.625 227 779.25 227.5 779.25 228 779.25 228.5 779.625 229.125 780.375 229.875 781.125 230.625 781.5 232.25 781.5 234.75 781.5 237.25 781.25 238.75 780.75 239.25 780.25 239.75 778.125 240 774.375 240 770.625 240 768.5 239.625 768 238.875 767.5 238.125 767.25 237.125 767.25 235.875 767.25 234.625 767.375 233.875 767.625 233.625 767.875 233.375 768 232.875 768 232.125 768 231.375 768.375 230.625 769.125 229.875 769.875 229.125 770.25 228.5 770.25 228 770.25 227.5 770 227 769.5 226.5 769 226 767.125 225.75 763.875 225.75 760.625 225.75 758.875 225.875 758.625 226.125 758.375 226.375 758 226.5 757.5 226.5 757 226.5 756.75 227 756.75 228ZM713.625 227.25C712.875 228.25 712.5 229.625 712.5 231.375 712.5 233.125 712.75 234.25 713.25 234.75 713.75 235.25 714.375 235.375 715.125 235.125 715.875 234.875 716.5 234.375 717 233.625 717.5 232.875 718.25 232.25 719.25 231.75 720.25 231.25 721.125 231 721.875 231 722.625 231 723.25 231.25 723.75 231.75 724.25 232.25 724.5 236.125 724.5 243.375 724.5 250.625 724 254.875 723 256.125 722 257.375 721.5 258.375 721.5 259.125 721.5 259.875 721.625 260.375 721.875 260.625 722.125 260.875 724.375 261 728.625 261 732.875 261 735.125 260.875 735.375 260.625 735.625 260.375 735.75 259.875 735.75 259.125 735.75 258.375 735.375 257.625 734.625 256.875 733.875 256.125 733.5 255.25 733.5 254.25 733.5 253.25 733.375 252.625 733.125 252.375 732.875 252.125 732.75 248.875 732.75 242.625 732.75 236.375 733 232.875 733.5 232.125 734 231.375 734.625 231 735.375 231 736.125 231 737.25 231.625 738.75 232.875 740.25 234.125 741.5 234.75 742.5 234.75 743.5 234.75 744.125 234.5 744.375 234 744.625 233.5 744.625 232.25 744.375 230.25 744.125 228.25 743.75 227 743.25 226.5 742.75 226 737.875 225.75 728.625 225.75 719.375 225.75 714.375 226.25 713.625 227.25ZM42 228.75C41.5 231.75 45.125 245.625 52.875 270.375 60.625 295.125 67 320.125 72 345.375 77 370.625 79.875 396.25 80.625 422.25 81.375 448.25 81.125 471.75 79.875 492.75 78.625 513.75 79.5 524.625 82.5 525.375 85.5 526.125 87.875 525.75 89.625 524.25 91.375 522.75 93.5 511.75 96 491.25 98.5 470.75 101.125 460.375 103.875 460.125 106.625 459.875 117.125 462.25 135.375 467.25 153.625 472.25 163.25 485.75 164.25 507.75 165.25 529.75 166.375 541.5 167.625 543 168.875 544.5 171 545.125 174 544.875 177 544.625 179 532.375 180 508.125 181 483.875 184 471 189 469.5 194 468 195.875 474.25 194.625 488.25 193.375 502.25 194.5 510.125 198 511.875 201.5 513.625 204 513.75 205.5 512.25 207 510.75 208.625 501.25 210.375 483.75 212.125 466.25 213.625 457 214.875 456 216.125 455 226.75 456.25 246.75 459.75 266.75 463.25 277.625 475 279.375 495 281.125 515 283 525.875 285 527.625 287 529.375 289.5 529.625 292.5 528.375 295.5 527.125 297.125 504.375 297.375 460.125 297.625 415.875 294.625 392.25 288.375 389.25 282.125 386.25 269 383.625 249 381.375 229 379.125 218.375 375.625 217.125 370.875 215.875 366.125 234.25 348.5 272.25 318 310.25 287.5 347.75 287.375 384.75 317.625 421.75 347.875 441.5 389.625 444 442.875 446.5 496.125 448.75 523.75 450.75 525.75 452.75 527.75 455.375 528.25 458.625 527.25 461.875 526.25 462.875 501.75 461.625 453.75 460.375 405.75 462.75 383.125 468.75 385.875 474.75 388.625 478.75 389.375 480.75 388.125 482.75 386.875 484 384.875 484.5 382.125 485 379.375 460.25 357.125 410.25 315.375 360.25 273.625 333 252.75 328.5 252.75 324 252.75 303.75 267 267.75 295.5 231.75 324 212.75 324 210.75 295.5 208.75 267 206.75 250.375 204.75 245.625 202.75 240.875 189.5 239.25 165 240.75 140.5 242.25 122 241.875 109.5 239.625 97 237.375 84.25 233.75 71.25 228.75 58.25 223.75 50.25 221.75 47.25 222.75 44.25 223.75 42.5 225.75 42 228.75ZM196.5 422.25C197 422.75 197.25 427.375 197.25 436.125 197.25 444.875 197.125 449.375 196.875 449.625 196.625 449.875 196.5 450.25 196.5 450.75 196.5 451.25 196 451.875 195 452.625 194 453.375 192.25 454 189.75 454.5 187.25 455 185.875 455.375 185.625 455.625 185.375 455.875 184.875 456 184.125 456 183.375 456 182.75 455.75 182.25 455.25 181.75 454.75 181.5 449.25 181.5 438.75 181.5 428.25 181.875 422.75 182.625 422.25 183.375 421.75 185.75 421.5 189.75 421.5 193.75 421.5 196 421.75 196.5 422.25ZM277.875 433.125C278.125 444.375 278 450.25 277.5 450.75 277 451.25 276.125 451.5 274.875 451.5 273.625 451.5 272.875 451.375 272.625 451.125 272.375 450.875 271.625 450.75 270.375 450.75 269.125 450.75 268.375 450.625 268.125 450.375 267.875 450.125 267.25 450 266.25 450 265.25 450 264.625 449.875 264.375 449.625 264.125 449.375 263.5 449.25 262.5 449.25 261.5 449.25 260.875 449.125 260.625 448.875 260.375 448.625 259.5 448.5 258 448.5 256.5 448.5 255.625 448.375 255.375 448.125 255.125 447.875 254.375 447.75 253.125 447.75 251.875 447.75 251.125 447.625 250.875 447.375 250.625 447.125 248.375 446.75 244.125 446.25 239.875 445.75 237.625 445.375 237.375 445.125 237.125 444.875 236.5 444.75 235.5 444.75 234.5 444.75 233.875 444.625 233.625 444.375 233.375 444.125 232.625 444 231.375 444 230.125 444 229.375 443.875 229.125 443.625 228.875 443.375 228.25 443.25 227.25 443.25 226.25 443.25 225.625 443.125 225.375 442.875 225.125 442.625 224.375 442.5 223.125 442.5 221.875 442.5 221.125 442.375 220.875 442.125 220.625 441.875 219.875 441.625 218.625 441.375 217.375 441.125 216.375 440.5 215.625 439.5 214.875 438.5 214.5 435.375 214.5 430.125 214.5 424.875 214.875 421.875 215.625 421.125 216.375 420.375 217.25 420 218.25 420 219.25 420 219.875 419.875 220.125 419.625 220.375 419.375 221.625 419.25 223.875 419.25 226.125 419.25 227.375 419.125 227.625 418.875 227.875 418.625 230.625 418.375 235.875 418.125 241.125 417.875 243.875 417.625 244.125 417.375 244.375 417.125 245.75 417 248.25 417 250.75 417 252.125 416.875 252.375 416.625 252.625 416.375 254 416.25 256.5 416.25 259 416.25 260.375 416.125 260.625 415.875 260.875 415.625 263.125 415.375 267.375 415.125 271.625 414.875 273.875 414.625 274.125 414.375 274.375 414.125 275 414.375 276 415.125 277 415.875 277.625 421.875 277.875 433.125ZM102.75 412.5C103.25 412.5 103.625 412.625 103.875 412.875 104.125 413.125 104.875 413.25 106.125 413.25 107.375 413.25 108.125 413.375 108.375 413.625 108.625 413.875 109.5 414 111 414 112.5 414 113.375 414.125 113.625 414.375 113.875 414.625 114.75 414.75 116.25 414.75 117.75 414.75 118.625 414.875 118.875 415.125 119.125 415.375 120.125 415.5 121.875 415.5 123.625 415.5 124.625 415.625 124.875 415.875 125.125 416.125 125.875 416.25 127.125 416.25 128.375 416.25 129.125 416.375 129.375 416.625 129.625 416.875 130.5 417 132 417 133.5 417 134.375 417.125 134.625 417.375 134.875 417.625 135.75 417.75 137.25 417.75 138.75 417.75 139.625 417.875 139.875 418.125 140.125 418.375 141 418.5 142.5 418.5 144 418.5 144.875 418.625 145.125 418.875 145.375 419.125 146.125 419.25 147.375 419.25 148.625 419.25 149.375 419.375 149.625 419.625 149.875 419.875 151.5 420.125 154.5 420.375 157.5 420.625 159.5 421.25 160.5 422.25 161.5 423.25 162 425.625 162 429.375 162 433.125 162.125 435.125 162.375 435.375 162.625 435.625 162.75 439.25 162.75 446.25 162.75 453.25 162.5 457 162 457.5 161.5 458 160.375 458.25 158.625 458.25 156.875 458.25 155.375 458 154.125 457.5 152.875 457 151.75 456.75 150.75 456.75 149.75 456.75 148.625 456.5 147.375 456 146.125 455.5 145 455.25 144 455.25 143 455.25 142.375 455.125 142.125 454.875 141.875 454.625 141.25 454.5 140.25 454.5 139.25 454.5 138.625 454.375 138.375 454.125 138.125 453.875 137.625 453.75 136.875 453.75 136.125 453.75 135.125 453.5 133.875 453 132.625 452.5 131.5 452.25 130.5 452.25 129.5 452.25 128.375 452 127.125 451.5 125.875 451 124.75 450.75 123.75 450.75 122.75 450.75 122.125 450.625 121.875 450.375 121.625 450.125 121.125 450 120.375 450 119.625 450 118.625 449.75 117.375 449.25 116.125 448.75 115 448.5 114 448.5 113 448.5 112 448.25 111 447.75 110 447.25 109.125 447 108.375 447 107.625 447 107.125 446.875 106.875 446.625 106.625 446.375 105.875 446.125 104.625 445.875 103.375 445.625 102.375 445.125 101.625 444.375 100.875 443.625 100.5 443 100.5 442.5 100.5 442 100.375 441.625 100.125 441.375 99.875 441.125 99.75 440.75 99.75 440.25 99.75 439.75 99.875 439.375 100.125 439.125 100.375 438.875 100.5 436.375 100.5 431.625 100.5 426.875 100.375 424.375 100.125 424.125 99.875 423.875 99.75 422.375 99.75 419.625 99.75 416.875 100.125 415 100.875 414 101.625 413 102.25 412.5 102.75 412.5ZM158.25 267.75C163.75 267.75 166.875 268 167.625 268.5 168.375 269 168.75 270 168.75 271.5 168.75 273 168.875 273.875 169.125 274.125 169.375 274.375 169.5 277 169.5 282 169.5 287 169.625 289.625 169.875 289.875 170.125 290.125 170.25 293.375 170.25 299.625 170.25 305.875 170.375 309.125 170.625 309.375 170.875 309.625 171.125 320.625 171.375 342.375 171.625 364.125 171.375 375.375 170.625 376.125 169.875 376.875 169.125 377.25 168.375 377.25 167.625 377.25 167.125 377.375 166.875 377.625 166.625 377.875 165.125 378 162.375 378 159.625 378 157.875 377.625 157.125 376.875 156.375 376.125 156 375.375 156 374.625 156 373.875 155.875 373.375 155.625 373.125 155.375 372.875 155.25 371 155.25 367.5 155.25 364 155.125 362.125 154.875 361.875 154.625 361.625 154.5 359.875 154.5 356.625 154.5 353.375 154.375 351.625 154.125 351.375 153.875 351.125 153.75 349.25 153.75 345.75 153.75 342.25 153.625 340.375 153.375 340.125 153.125 339.875 153 338.375 153 335.625 153 332.875 152.875 331.375 152.625 331.125 152.375 330.875 152.25 329.375 152.25 326.625 152.25 323.875 152.125 322.375 151.875 322.125 151.625 321.875 151.5 320.25 151.5 317.25 151.5 314.25 151.375 312.625 151.125 312.375 150.875 312.125 150.75 310.75 150.75 308.25 150.75 305.75 150.625 304.375 150.375 304.125 150.125 303.875 149.875 301.125 149.625 295.875 149.375 290.625 149.125 287.875 148.875 287.625 148.625 287.375 148.375 285 148.125 280.5 147.875 276 147.625 273.625 147.375 273.375 147.125 273.125 147.125 272.375 147.375 271.125 147.625 269.875 148.125 269 148.875 268.5 149.625 268 152.75 267.75 158.25 267.75ZM187.875 265.5C189.625 265.5 190.75 265.75 191.25 266.25 191.75 266.75 192.125 271.25 192.375 279.75 192.625 288.25 192.875 292.625 193.125 292.875 193.375 293.125 193.5 295.5 193.5 300 193.5 304.5 193.625 306.875 193.875 307.125 194.125 307.375 194.25 309.875 194.25 314.625 194.25 319.375 194.375 321.875 194.625 322.125 194.875 322.375 195 324.625 195 328.875 195 333.125 195.125 335.375 195.375 335.625 195.625 335.875 195.75 338.375 195.75 343.125 195.75 347.875 195.875 350.375 196.125 350.625 196.375 350.875 196.5 353.875 196.5 359.625 196.5 365.375 196.625 368.375 196.875 368.625 197.125 368.875 197.25 369.75 197.25 371.25 197.25 372.75 196.875 374 196.125 375 195.375 376 193.625 376.5 190.875 376.5 188.125 376.5 186.5 376.25 186 375.75 185.5 375.25 185.25 374.75 185.25 374.25 185.25 373.75 185.125 373.375 184.875 373.125 184.625 372.875 184.5 372.125 184.5 370.875 184.5 369.625 184.625 368.875 184.875 368.625 185.125 368.375 185.25 367.625 185.25 366.375 185.25 365.125 185.125 364.375 184.875 364.125 184.625 363.875 184.5 359.25 184.5 350.25 184.5 341.25 184.375 336.625 184.125 336.375 183.875 336.125 183.75 332.5 183.75 325.5 183.75 318.5 183.625 314.875 183.375 314.625 183.125 314.375 183 311.5 183 306 183 300.5 182.875 297.625 182.625 297.375 182.375 297.125 182.25 293.875 182.25 287.625 182.25 281.375 182.125 278.125 181.875 277.875 181.625 277.625 181.5 275.875 181.5 272.625 181.5 269.375 181.75 267.5 182.25 267 182.75 266.5 183.25 266.25 183.75 266.25 184.25 266.25 184.625 266.125 184.875 265.875 185.125 265.625 186.125 265.5 187.875 265.5ZM114 265.5C116 265.5 117.125 265.625 117.375 265.875 117.625 266.125 118.625 266.25 120.375 266.25 122.125 266.25 123.125 266.375 123.375 266.625 123.625 266.875 124.875 267 127.125 267 129.375 267 131 267.375 132 268.125 133 268.875 133.5 269.5 133.5 270 133.5 270.5 133.625 270.875 133.875 271.125 134.125 271.375 134.25 272.625 134.25 274.875 134.25 277.125 134.375 278.375 134.625 278.625 134.875 278.875 135 279.875 135 281.625 135 283.375 135.125 284.375 135.375 284.625 135.625 284.875 135.75 285.875 135.75 287.625 135.75 289.375 135.875 290.375 136.125 290.625 136.375 290.875 136.5 292.125 136.5 294.375 136.5 296.625 136.625 297.875 136.875 298.125 137.125 298.375 137.25 299.625 137.25 301.875 137.25 304.125 137.375 305.375 137.625 305.625 137.875 305.875 138 307.125 138 309.375 138 311.625 138.125 312.875 138.375 313.125 138.625 313.375 138.75 314.625 138.75 316.875 138.75 319.125 138.875 320.375 139.125 320.625 139.375 320.875 139.5 322.5 139.5 325.5 139.5 328.5 139.625 330.125 139.875 330.375 140.125 330.625 140.25 332.25 140.25 335.25 140.25 338.25 140.375 339.875 140.625 340.125 140.875 340.375 141 342.125 141 345.375 141 348.625 141.125 350.375 141.375 350.625 141.625 350.875 141.875 355.5 142.125 364.5 142.375 373.5 142.25 378.25 141.75 378.75 141.25 379.25 140.5 379.5 139.5 379.5 138.5 379.5 137.875 379.625 137.625 379.875 137.375 380.125 135.75 380.25 132.75 380.25 129.75 380.25 128 379.875 127.5 379.125 127 378.375 126.625 376.25 126.375 372.75 126.125 369.25 125.875 367.375 125.625 367.125 125.375 366.875 125.25 366 125.25 364.5 125.25 363 125.125 362.125 124.875 361.875 124.625 361.625 124.5 360.5 124.5 358.5 124.5 356.5 124.375 355.375 124.125 355.125 123.875 354.875 123.75 354 123.75 352.5 123.75 351 123.625 350.125 123.375 349.875 123.125 349.625 123 348.625 123 346.875 123 345.125 122.875 344.125 122.625 343.875 122.375 343.625 122.125 341.875 121.875 338.625 121.625 335.375 121.375 333.625 121.125 333.375 120.875 333.125 120.75 332.375 120.75 331.125 120.75 329.875 120.625 329.125 120.375 328.875 120.125 328.625 120 327.75 120 326.25 120 324.75 119.875 323.875 119.625 323.625 119.375 323.375 119.25 322.625 119.25 321.375 119.25 320.125 119.125 319.375 118.875 319.125 118.625 318.875 118.5 318.125 118.5 316.875 118.5 315.625 118.375 314.875 118.125 314.625 117.875 314.375 117.75 313.5 117.75 312 117.75 310.5 117.625 309.625 117.375 309.375 117.125 309.125 117 308.375 117 307.125 117 305.875 116.875 305.125 116.625 304.875 116.375 304.625 116.25 304 116.25 303 116.25 302 116.125 301.375 115.875 301.125 115.625 300.875 115.375 299.375 115.125 296.625 114.875 293.875 114.625 292.375 114.375 292.125 114.125 291.875 114 291.25 114 290.25 114 289.25 113.875 288.625 113.625 288.375 113.375 288.125 113.25 287.5 113.25 286.5 113.25 285.5 113.125 284.875 112.875 284.625 112.625 284.375 112.5 283.75 112.5 282.75 112.5 281.75 112.375 281.125 112.125 280.875 111.875 280.625 111.75 279.875 111.75 278.625 111.75 277.375 111.625 276.625 111.375 276.375 111.125 276.125 111 275.5 111 274.5 111 273.5 110.875 272.875 110.625 272.625 110.375 272.375 110.25 271.75 110.25 270.75 110.25 269.75 110.125 269.125 109.875 268.875 109.625 268.625 109.5 268.25 109.5 267.75 109.5 267.25 109.75 266.75 110.25 266.25 110.75 265.75 112 265.5 114 265.5ZM75.75 259.125C77.75 259.375 78.875 259.625 79.125 259.875 79.375 260.125 80.125 260.25 81.375 260.25 82.625 260.25 83.375 260.375 83.625 260.625 83.875 260.875 84.5 261 85.5 261 86.5 261 87.125 261.125 87.375 261.375 87.625 261.625 88.25 261.75 89.25 261.75 90.25 261.75 90.875 261.875 91.125 262.125 91.375 262.375 91.75 262.5 92.25 262.5 92.75 262.5 93.5 263.125 94.5 264.375 95.5 265.625 96.125 267.25 96.375 269.25 96.625 271.25 96.875 272.375 97.125 272.625 97.375 272.875 97.5 273.5 97.5 274.5 97.5 275.5 97.625 276.125 97.875 276.375 98.125 276.625 98.25 277.25 98.25 278.25 98.25 279.25 98.375 279.875 98.625 280.125 98.875 280.375 99 281 99 282 99 283 99.125 283.625 99.375 283.875 99.625 284.125 99.75 284.75 99.75 285.75 99.75 286.75 99.875 287.375 100.125 287.625 100.375 287.875 100.5 288.5 100.5 289.5 100.5 290.5 100.625 291.125 100.875 291.375 101.125 291.625 101.375 293.125 101.625 295.875 101.875 298.625 102.125 300.125 102.375 300.375 102.625 300.625 102.75 301.25 102.75 302.25 102.75 303.25 102.875 303.875 103.125 304.125 103.375 304.375 103.5 305 103.5 306 103.5 307 103.625 307.625 103.875 307.875 104.125 308.125 104.25 308.875 104.25 310.125 104.25 311.375 104.375 312.125 104.625 312.375 104.875 312.625 105 313.375 105 314.625 105 315.875 105.125 316.625 105.375 316.875 105.625 317.125 105.75 317.875 105.75 319.125 105.75 320.375 105.875 321.125 106.125 321.375 106.375 321.625 106.5 322.375 106.5 323.625 106.5 324.875 106.625 325.625 106.875 325.875 107.125 326.125 107.25 327 107.25 328.5 107.25 330 107.375 330.875 107.625 331.125 107.875 331.375 108 332.25 108 333.75 108 335.25 108.125 336.125 108.375 336.375 108.625 336.625 108.75 337.5 108.75 339 108.75 340.5 108.875 341.375 109.125 341.625 109.375 341.875 109.5 342.875 109.5 344.625 109.5 346.375 109.625 347.375 109.875 347.625 110.125 347.875 110.375 349.625 110.625 352.875 110.875 356.125 111.125 357.875 111.375 358.125 111.625 358.375 111.75 359.5 111.75 361.5 111.75 363.5 111.875 364.625 112.125 364.875 112.375 365.125 112.5 366.125 112.5 367.875 112.5 369.625 112.625 370.625 112.875 370.875 113.125 371.125 113.375 372.875 113.625 376.125 113.875 379.375 113.375 381.5 112.125 382.5 110.875 383.5 109.25 384.125 107.25 384.375 105.25 384.625 104.125 384.875 103.875 385.125 103.625 385.375 102.75 385.5 101.25 385.5 99.75 385.5 98.625 385.125 97.875 384.375 97.125 383.625 96.75 382.625 96.75 381.375 96.75 380.125 96.625 379.375 96.375 379.125 96.125 378.875 96 378.125 96 376.875 96 375.625 95.875 374.875 95.625 374.625 95.375 374.375 95.25 373.75 95.25 372.75 95.25 371.75 95.125 371.125 94.875 370.875 94.625 370.625 94.375 369.125 94.125 366.375 93.875 363.625 93.625 362.125 93.375 361.875 93.125 361.625 93 361 93 360 93 359 92.875 358.375 92.625 358.125 92.375 357.875 92.25 357.125 92.25 355.875 92.25 354.625 92.125 353.875 91.875 353.625 91.625 353.375 91.5 352.75 91.5 351.75 91.5 350.75 91.375 350.125 91.125 349.875 90.875 349.625 90.75 349 90.75 348 90.75 347 90.625 346.375 90.375 346.125 90.125 345.875 90 345.125 90 343.875 90 342.625 89.875 341.875 89.625 341.625 89.375 341.375 89.25 340.75 89.25 339.75 89.25 338.75 89.125 338.125 88.875 337.875 88.625 337.625 88.5 337 88.5 336 88.5 335 88.375 334.375 88.125 334.125 87.875 333.875 87.75 333.25 87.75 332.25 87.75 331.25 87.625 330.625 87.375 330.375 87.125 330.125 86.75 328.25 86.25 324.75 85.75 321.25 85.25 318.875 84.75 317.625 84.25 316.375 83.875 314.625 83.625 312.375 83.375 310.125 83.125 308.875 82.875 308.625 82.625 308.375 82.5 307.875 82.5 307.125 82.5 306.375 82.375 305.875 82.125 305.625 81.875 305.375 81.75 304.875 81.75 304.125 81.75 303.375 81.625 302.875 81.375 302.625 81.125 302.375 81 301.875 81 301.125 81 300.375 80.875 299.875 80.625 299.625 80.375 299.375 80.125 298.25 79.875 296.25 79.625 294.25 79.25 292.75 78.75 291.75 78.25 290.75 77.75 288.875 77.25 286.125 76.75 283.375 76.25 281.5 75.75 280.5 75.25 279.5 74.625 277.125 73.875 273.375 73.125 269.625 72.375 266.75 71.625 264.75 70.875 262.75 70.875 261.25 71.625 260.25 72.375 259.25 73.75 258.875 75.75 259.125ZM75.75 259.125" fill="#81605b" fill-rule="evenodd"/>
</g>
</svg>
